<svg width="216" height="216" viewBox="0 0 216 216" fill="none" xmlns="http://www.w3.org/2000/svg">
<g clip-path="url(#clip0_67_1704)">
<mask id="mask0_67_1704" style="mask-type:alpha" maskUnits="userSpaceOnUse" x="24" y="36" width="142" height="143">
<g style="mix-blend-mode:darken">
<path d="M164.702 107.898C164.702 146.838 133.358 178.398 94.7017 178.398C56.0451 178.398 24.7017 146.838 24.7017 107.898C24.7017 68.959 56.0451 37.3984 94.7017 37.3984C133.358 37.3984 164.702 68.959 164.702 107.898Z" fill="black"/>
<path d="M164.702 107.898C164.702 146.838 133.358 178.398 94.7017 178.398C56.0451 178.398 24.7017 146.838 24.7017 107.898C24.7017 68.959 56.0451 37.3984 94.7017 37.3984C133.358 37.3984 164.702 68.959 164.702 107.898Z" stroke="black"/>
</g>
</mask>
<g mask="url(#mask0_67_1704)">
<path fill-rule="evenodd" clip-rule="evenodd" d="M3.04781 176.482C2.95764 176.256 2.86496 176.026 2.76973 175.793C2.67616 175.563 2.3555 174.78 2.31167 174.673C-0.17311 168.593 -1.10603 164.789 -1.10603 158.232C-1.10603 151.727 -0.260194 148.503 2.30599 142.634C2.57066 142.028 2.81764 141.45 3.04781 140.892L3.04781 136.949C2.54204 138.539 1.87709 140.204 1.02041 142.163C-1.60572 148.169 -2.49065 151.542 -2.49065 158.232C-2.49065 164.961 -1.52323 168.907 1.01473 175.117C1.0589 175.225 1.37933 176.007 1.47247 176.235C2.11172 177.803 2.63205 179.187 3.04781 180.494L3.04781 176.482ZM-10.7983 176.482C-8.79622 181.502 -8.02911 184.783 -8.02911 189.898L-9.41372 189.898C-9.41372 186.261 -9.81136 183.596 -10.7983 180.494L-10.7983 176.482ZM-10.7983 140.892C-8.74466 135.914 -8.02911 132.58 -8.02911 126.565L-9.41373 126.565C-9.41373 130.899 -9.78909 133.776 -10.7983 136.949L-10.7983 140.892ZM-1.10603 189.898C-1.10603 184.553 -1.9438 181.21 -4.15335 175.793C-4.24692 175.563 -4.56757 174.78 -4.61141 174.673C-7.09619 168.593 -8.02911 164.789 -8.02911 158.232C-8.02911 151.727 -7.18327 148.503 -4.61709 142.634C-1.99096 136.628 -1.10603 133.254 -1.10603 126.565L-2.49065 126.565C-2.49065 133.07 -3.33649 136.294 -5.90267 142.163C-8.5288 148.169 -9.41373 151.542 -9.41373 158.232C-9.41373 164.961 -8.4463 168.907 -5.90835 175.117C-5.86418 175.225 -5.54375 176.007 -5.45061 176.235C-3.29384 181.524 -2.49065 184.728 -2.49065 189.898L-1.10603 189.898Z" fill="black"/>
<path fill-rule="evenodd" clip-rule="evenodd" d="M3.04781 113.148C2.95764 112.922 2.86496 112.693 2.76973 112.459C2.67616 112.23 2.3555 111.447 2.31166 111.34C-0.173113 105.26 -1.10604 101.455 -1.10604 94.8984C-1.10604 88.3934 -0.260197 85.1693 2.30599 79.3003C2.57065 78.695 2.81764 78.1164 3.04781 77.5585L3.04781 73.6159C2.54204 75.2061 1.87709 76.8706 1.0204 78.8299C-1.60572 84.8359 -2.49065 88.209 -2.49065 94.8984C-2.49065 101.628 -1.52323 105.573 1.01473 111.783C1.0589 111.891 1.37932 112.674 1.47247 112.902C2.11171 114.469 2.63205 115.854 3.04781 117.16L3.04781 113.148ZM-10.7983 113.148C-8.79622 118.169 -8.02911 121.45 -8.02911 126.565L-9.41373 126.565C-9.41373 122.927 -9.81136 120.263 -10.7983 117.16L-10.7983 113.148ZM-10.7983 77.5585C-8.74466 72.5807 -8.02911 69.247 -8.02911 63.2318L-9.41373 63.2318C-9.41373 67.5652 -9.78909 70.4426 -10.7983 73.6159L-10.7983 77.5585ZM-1.10603 126.565C-1.10604 121.219 -1.9438 117.877 -4.15335 112.459C-4.24692 112.23 -4.56758 111.447 -4.61141 111.34C-7.09619 105.26 -8.02911 101.455 -8.02911 94.8984C-8.02911 88.3934 -7.18327 85.1693 -4.61709 79.3003C-1.99097 73.2943 -1.10604 69.9212 -1.10604 63.2318L-2.49065 63.2318C-2.49065 69.7368 -3.33649 72.9609 -5.90267 78.8299C-8.5288 84.8359 -9.41373 88.2091 -9.41373 94.8984C-9.41373 101.628 -8.44631 105.573 -5.90835 111.783C-5.86418 111.891 -5.54375 112.674 -5.45061 112.902C-3.29385 118.19 -2.49065 121.395 -2.49065 126.565L-1.10603 126.565Z" fill="black"/>
<path fill-rule="evenodd" clip-rule="evenodd" d="M3.04781 49.8151C2.95763 49.589 2.86495 49.3594 2.76973 49.1259C2.67616 48.8965 2.3555 48.1138 2.31166 48.0065C-0.173116 41.9266 -1.10604 38.122 -1.10604 31.5651C-1.10604 25.0601 -0.260199 21.8359 2.30598 15.967C2.57065 15.3617 2.81763 14.7831 3.04781 14.2252L3.04781 10.2826C2.54204 11.8728 1.87708 13.5373 1.0204 15.4966C-1.60573 21.5026 -2.49065 24.8757 -2.49065 31.5651C-2.49065 38.2948 -1.52323 42.2401 1.01472 48.4501C1.05889 48.5582 1.37932 49.3403 1.47246 49.5687C2.11171 51.1361 2.63205 52.5204 3.04781 53.8271L3.04781 49.8151ZM-10.7983 49.8152C-8.79623 54.8353 -8.02911 58.1165 -8.02911 63.2318L-9.41373 63.2318C-9.41373 59.594 -9.81136 56.9292 -10.7983 53.8271L-10.7983 49.8152ZM-10.7983 14.2252C-8.74466 9.24736 -8.02912 5.91366 -8.02912 -0.101555L-9.41373 -0.101555C-9.41373 4.23188 -9.7891 7.10931 -10.7983 10.2826L-10.7983 14.2252ZM-1.10604 63.2318C-1.10604 57.8861 -1.94381 54.5435 -4.15335 49.1259C-4.24692 48.8965 -4.56758 48.1138 -4.61142 48.0065C-7.09619 41.9266 -8.02912 38.122 -8.02912 31.5651C-8.02912 25.0601 -7.18328 21.8359 -4.61709 15.967C-1.99097 9.96095 -1.10604 6.58784 -1.10604 -0.101555L-2.49066 -0.101555C-2.49066 6.4035 -3.3365 9.6276 -5.90268 15.4966C-8.5288 21.5026 -9.41373 24.8757 -9.41373 31.5651C-9.41373 38.2948 -8.44631 42.2401 -5.90835 48.4501C-5.86418 48.5582 -5.54376 49.3403 -5.45061 49.5687C-3.29385 54.8569 -2.49065 58.0615 -2.49065 63.2318L-1.10604 63.2318Z" fill="black"/>
<path fill-rule="evenodd" clip-rule="evenodd" d="M16.894 176.482C16.8038 176.256 16.7111 176.026 16.6159 175.793C16.5223 175.563 16.2017 174.78 16.1578 174.673C13.673 168.593 12.7401 164.789 12.7401 158.232C12.7401 151.727 13.586 148.503 16.1521 142.634C16.4168 142.028 16.6638 141.45 16.894 140.892L16.894 136.949C16.3882 138.539 15.7232 140.204 14.8666 142.163C12.2404 148.169 11.3555 151.542 11.3555 158.232C11.3555 164.961 12.3229 168.907 14.8609 175.117C14.9051 175.225 15.2255 176.007 15.3186 176.235C15.9579 177.803 16.4782 179.187 16.894 180.494L16.894 176.482ZM3.04781 176.482C5.04993 181.502 5.81705 184.783 5.81705 189.898L4.43243 189.898C4.43243 186.261 4.0348 183.596 3.04781 180.494L3.04781 176.482ZM3.04781 140.892C5.1015 135.914 5.81704 132.58 5.81704 126.565L4.43243 126.565C4.43243 130.899 4.05706 133.776 3.04781 136.949L3.04781 140.892ZM12.7401 189.898C12.7401 184.553 11.9024 181.21 9.69281 175.793C9.59924 175.563 9.27858 174.78 9.23474 174.673C6.74997 168.593 5.81704 164.789 5.81704 158.232C5.81704 151.727 6.66288 148.503 9.22906 142.634C11.8552 136.628 12.7401 133.254 12.7401 126.565L11.3555 126.565C11.3555 133.07 10.5097 136.294 7.94348 142.163C5.31736 148.169 4.43243 151.542 4.43243 158.232C4.43243 164.961 5.39985 168.907 7.93781 175.117C7.98198 175.225 8.3024 176.007 8.39555 176.235C10.5523 181.524 11.3555 184.728 11.3555 189.898L12.7401 189.898Z" fill="black"/>
<path fill-rule="evenodd" clip-rule="evenodd" d="M16.894 113.148C16.8038 112.922 16.7111 112.693 16.6159 112.459C16.5223 112.23 16.2017 111.447 16.1578 111.34C13.673 105.26 12.7401 101.455 12.7401 94.8984C12.7401 88.3934 13.586 85.1693 16.1521 79.3003C16.4168 78.695 16.6638 78.1164 16.894 77.5585L16.894 73.6159C16.3882 75.2061 15.7232 76.8706 14.8666 78.8299C12.2404 84.8359 11.3555 88.209 11.3555 94.8984C11.3555 101.628 12.3229 105.573 14.8609 111.783C14.9051 111.891 15.2255 112.674 15.3186 112.902C15.9579 114.469 16.4782 115.854 16.894 117.16L16.894 113.148ZM3.04781 113.148C5.04993 118.169 5.81704 121.45 5.81704 126.565L4.43243 126.565C4.43243 122.927 4.03479 120.263 3.04781 117.16L3.04781 113.148ZM3.04781 77.5585C5.10149 72.5807 5.81704 69.247 5.81704 63.2318L4.43242 63.2318C4.43242 67.5652 4.05706 70.4426 3.04781 73.6159L3.04781 77.5585ZM12.7401 126.565C12.7401 121.219 11.9023 117.877 9.69281 112.459C9.59923 112.23 9.27858 111.447 9.23474 111.34C6.74996 105.26 5.81704 101.455 5.81704 94.8984C5.81704 88.3934 6.66288 85.1693 9.22906 79.3003C11.8552 73.2943 12.7401 69.9212 12.7401 63.2318L11.3555 63.2318C11.3555 69.7368 10.5097 72.9609 7.94348 78.8299C5.31735 84.8359 4.43242 88.209 4.43242 94.8984C4.43243 101.628 5.39985 105.573 7.9378 111.783C7.98197 111.891 8.3024 112.674 8.39554 112.902C10.5523 118.19 11.3555 121.395 11.3555 126.565L12.7401 126.565Z" fill="black"/>
<path fill-rule="evenodd" clip-rule="evenodd" d="M16.894 49.8151C16.8038 49.589 16.7111 49.3594 16.6159 49.1259C16.5223 48.8965 16.2017 48.1138 16.1578 48.0065C13.673 41.9266 12.7401 38.122 12.7401 31.5651C12.7401 25.06 13.586 21.8359 16.1521 15.967C16.4168 15.3617 16.6638 14.7831 16.894 14.2252L16.894 10.2826C16.3882 11.8728 15.7232 13.5373 14.8666 15.4966C12.2404 21.5026 11.3555 24.8757 11.3555 31.5651C11.3555 38.2948 12.3229 42.2401 14.8609 48.4501C14.905 48.5582 15.2255 49.3403 15.3186 49.5687C15.9579 51.1361 16.4782 52.5204 16.894 53.8271L16.894 49.8151ZM3.04781 49.8151C5.04993 54.8353 5.81704 58.1165 5.81704 63.2318L4.43242 63.2318C4.43242 59.594 4.03479 56.9292 3.04781 53.8271L3.04781 49.8151ZM3.04781 14.2252C5.10149 9.24736 5.81704 5.91366 5.81704 -0.101555L4.43242 -0.101555C4.43242 4.23188 4.05706 7.10931 3.04781 10.2826L3.04781 14.2252ZM12.7401 63.2318C12.7401 57.8861 11.9023 54.5435 9.6928 49.1259C9.59923 48.8965 9.27858 48.1138 9.23474 48.0065C6.74996 41.9266 5.81704 38.122 5.81704 31.5651C5.81704 25.06 6.66288 21.8359 9.22906 15.967C11.8552 9.96095 12.7401 6.58784 12.7401 -0.101556L11.3555 -0.101556C11.3555 6.4035 10.5097 9.6276 7.94348 15.4966C5.31735 21.5026 4.43242 24.8757 4.43242 31.5651C4.43242 38.2948 5.39984 42.2401 7.9378 48.4501C7.98197 48.5582 8.3024 49.3403 8.39554 49.5687C10.5523 54.8569 11.3555 58.0615 11.3555 63.2318L12.7401 63.2318Z" fill="black"/>
<path fill-rule="evenodd" clip-rule="evenodd" d="M30.7401 176.482C30.6499 176.256 30.5573 176.026 30.462 175.793C30.3685 175.563 30.0478 174.78 30.004 174.673C27.5192 168.593 26.5863 164.789 26.5863 158.232C26.5863 151.727 27.4321 148.503 29.9983 142.634C30.263 142.028 30.5099 141.45 30.7401 140.892L30.7401 136.949C30.2344 138.539 29.5694 140.204 28.7127 142.163C26.0866 148.169 25.2017 151.542 25.2017 158.232C25.2017 164.961 26.1691 168.907 28.707 175.117C28.7512 175.225 29.0716 176.007 29.1648 176.235C29.804 177.803 30.3244 179.187 30.7401 180.494L30.7401 176.482ZM16.894 176.482C18.8961 181.502 19.6632 184.783 19.6632 189.898L18.2786 189.898C18.2786 186.261 17.8809 183.596 16.894 180.494L16.894 176.482ZM16.894 140.892C18.9477 135.914 19.6632 132.58 19.6632 126.565L18.2786 126.565C18.2786 130.899 17.9032 133.776 16.894 136.949L16.894 140.892ZM26.5863 189.898C26.5863 184.553 25.7485 181.21 23.539 175.793C23.4454 175.563 23.1247 174.78 23.0809 174.673C20.5961 168.593 19.6632 164.789 19.6632 158.232C19.6632 151.727 20.509 148.503 23.0752 142.634C25.7013 136.628 26.5863 133.254 26.5863 126.565L25.2017 126.565C25.2017 133.07 24.3558 136.294 21.7896 142.163C19.1635 148.169 18.2786 151.542 18.2786 158.232C18.2786 164.961 19.246 168.907 21.784 175.117C21.8281 175.225 22.1486 176.007 22.2417 176.235C24.3985 181.524 25.2017 184.728 25.2017 189.898L26.5863 189.898Z" fill="black"/>
<path fill-rule="evenodd" clip-rule="evenodd" d="M30.7401 113.148C30.6499 112.922 30.5573 112.693 30.462 112.459C30.3685 112.23 30.0478 111.447 30.004 111.34C27.5192 105.26 26.5863 101.455 26.5863 94.8984C26.5863 88.3934 27.4321 85.1693 29.9983 79.3003C30.263 78.695 30.5099 78.1164 30.7401 77.5585L30.7401 73.6159C30.2344 75.2061 29.5694 76.8706 28.7127 78.8299C26.0866 84.8359 25.2017 88.209 25.2017 94.8984C25.2017 101.628 26.1691 105.573 28.707 111.783C28.7512 111.891 29.0716 112.674 29.1648 112.902C29.804 114.469 30.3244 115.854 30.7401 117.16L30.7401 113.148ZM16.894 113.148C18.8961 118.169 19.6632 121.45 19.6632 126.565L18.2786 126.565C18.2786 122.927 17.8809 120.263 16.894 117.16L16.894 113.148ZM16.894 77.5585C18.9476 72.5807 19.6632 69.247 19.6632 63.2318L18.2786 63.2318C18.2786 67.5652 17.9032 70.4426 16.894 73.6159L16.894 77.5585ZM26.5863 126.565C26.5863 121.219 25.7485 117.877 23.539 112.459C23.4454 112.23 23.1247 111.447 23.0809 111.34C20.5961 105.26 19.6632 101.455 19.6632 94.8984C19.6632 88.3934 20.509 85.1693 23.0752 79.3003C25.7013 73.2943 26.5863 69.9212 26.5863 63.2318L25.2017 63.2318C25.2017 69.7368 24.3558 72.9609 21.7896 78.8299C19.1635 84.8359 18.2786 88.209 18.2786 94.8984C18.2786 101.628 19.246 105.573 21.784 111.783C21.8281 111.891 22.1486 112.674 22.2417 112.902C24.3985 118.19 25.2017 121.395 25.2017 126.565L26.5863 126.565Z" fill="black"/>
<path fill-rule="evenodd" clip-rule="evenodd" d="M30.7401 49.8151C30.6499 49.589 30.5573 49.3594 30.462 49.1259C30.3685 48.8965 30.0478 48.1138 30.004 48.0065C27.5192 41.9266 26.5863 38.122 26.5863 31.5651C26.5863 25.06 27.4321 21.8359 29.9983 15.967C30.263 15.3617 30.5099 14.7831 30.7401 14.2252L30.7401 10.2826C30.2343 11.8728 29.5694 13.5373 28.7127 15.4966C26.0866 21.5026 25.2017 24.8757 25.2017 31.5651C25.2017 38.2948 26.1691 42.2401 28.707 48.4501C28.7512 48.5582 29.0716 49.3403 29.1648 49.5687C29.804 51.1361 30.3244 52.5204 30.7401 53.8271L30.7401 49.8151ZM16.894 49.8151C18.8961 54.8353 19.6632 58.1165 19.6632 63.2318L18.2786 63.2318C18.2786 59.594 17.8809 56.9292 16.894 53.8271L16.894 49.8151ZM16.894 14.2252C18.9476 9.24736 19.6632 5.91366 19.6632 -0.101556L18.2786 -0.101556C18.2786 4.23188 17.9032 7.10931 16.894 10.2826L16.894 14.2252ZM26.5863 63.2318C26.5863 57.8861 25.7485 54.5435 23.539 49.1259C23.4454 48.8965 23.1247 48.1138 23.0809 48.0065C20.5961 41.9266 19.6632 38.122 19.6632 31.5651C19.6632 25.06 20.509 21.8359 23.0752 15.967C25.7013 9.96094 26.5863 6.58783 26.5863 -0.101556L25.2017 -0.101556C25.2017 6.4035 24.3558 9.6276 21.7896 15.4966C19.1635 21.5026 18.2786 24.8757 18.2786 31.5651C18.2786 38.2948 19.246 42.2401 21.784 48.4501C21.8281 48.5582 22.1486 49.3403 22.2417 49.5687C24.3985 54.8569 25.2017 58.0615 25.2017 63.2318L26.5863 63.2318Z" fill="black"/>
<path fill-rule="evenodd" clip-rule="evenodd" d="M44.5863 176.482C44.4961 176.256 44.4034 176.026 44.3082 175.793C44.2146 175.563 43.894 174.78 43.8501 174.673C41.3654 168.593 40.4324 164.789 40.4324 158.232C40.4324 151.727 41.2783 148.503 43.8444 142.634C44.1091 142.028 44.3561 141.45 44.5863 140.892L44.5863 136.949C44.0805 138.539 43.4156 140.204 42.5589 142.163C39.9327 148.169 39.0478 151.542 39.0478 158.232C39.0478 164.961 40.0152 168.907 42.5532 175.117C42.5974 175.225 42.9178 176.007 43.0109 176.235C43.6502 177.803 44.1705 179.187 44.5863 180.494L44.5863 176.482ZM30.7401 176.482C32.7422 181.502 33.5094 184.783 33.5094 189.898L32.1247 189.898C32.1247 186.261 31.7271 183.596 30.7401 180.494L30.7401 176.482ZM30.7401 140.892C32.7938 135.914 33.5094 132.58 33.5094 126.565L32.1247 126.565C32.1247 130.899 31.7494 133.776 30.7401 136.949L30.7401 140.892ZM40.4324 189.898C40.4324 184.553 39.5947 181.21 37.3851 175.793C37.2915 175.563 36.9709 174.78 36.9271 174.673C34.4423 168.593 33.5094 164.789 33.5094 158.232C33.5094 151.727 34.3552 148.503 36.9214 142.634C39.5475 136.628 40.4324 133.254 40.4324 126.565L39.0478 126.565C39.0478 133.07 38.202 136.294 35.6358 142.163C33.0097 148.169 32.1247 151.542 32.1247 158.232C32.1247 164.961 33.0922 168.907 35.6301 175.117C35.6743 175.225 35.9947 176.007 36.0879 176.235C38.2446 181.524 39.0478 184.728 39.0478 189.898L40.4324 189.898Z" fill="black"/>
<path fill-rule="evenodd" clip-rule="evenodd" d="M44.5863 113.148C44.4961 112.922 44.4034 112.693 44.3082 112.459C44.2146 112.23 43.894 111.447 43.8501 111.34C41.3653 105.26 40.4324 101.455 40.4324 94.8984C40.4324 88.3934 41.2783 85.1693 43.8444 79.3003C44.1091 78.695 44.3561 78.1164 44.5863 77.5585L44.5863 73.6159C44.0805 75.2061 43.4155 76.8706 42.5589 78.8299C39.9327 84.8359 39.0478 88.209 39.0478 94.8984C39.0478 101.628 40.0152 105.573 42.5532 111.783C42.5974 111.891 42.9178 112.674 43.0109 112.902C43.6502 114.469 44.1705 115.854 44.5863 117.16L44.5863 113.148ZM30.7401 113.148C32.7422 118.169 33.5094 121.45 33.5094 126.565L32.1247 126.565C32.1247 122.927 31.7271 120.263 30.7401 117.16L30.7401 113.148ZM30.7401 77.5585C32.7938 72.5807 33.5093 69.247 33.5093 63.2318L32.1247 63.2318C32.1247 67.5652 31.7494 70.4426 30.7401 73.6159L30.7401 77.5585ZM40.4324 126.565C40.4324 121.219 39.5947 117.877 37.3851 112.459C37.2915 112.23 36.9709 111.447 36.9271 111.34C34.4423 105.26 33.5093 101.455 33.5093 94.8984C33.5093 88.3934 34.3552 85.1693 36.9214 79.3003C39.5475 73.2943 40.4324 69.9212 40.4324 63.2318L39.0478 63.2318C39.0478 69.7368 38.202 72.9609 35.6358 78.8299C33.0097 84.8359 32.1247 88.209 32.1247 94.8984C32.1247 101.628 33.0922 105.573 35.6301 111.783C35.6743 111.891 35.9947 112.674 36.0879 112.902C38.2446 118.19 39.0478 121.395 39.0478 126.565L40.4324 126.565Z" fill="black"/>
<path fill-rule="evenodd" clip-rule="evenodd" d="M44.5863 49.8151C44.4961 49.589 44.4034 49.3594 44.3082 49.1259C44.2146 48.8965 43.894 48.1138 43.8501 48.0065C41.3653 41.9266 40.4324 38.122 40.4324 31.5651C40.4324 25.06 41.2783 21.8359 43.8444 15.967C44.1091 15.3617 44.3561 14.7831 44.5863 14.2252L44.5863 10.2826C44.0805 11.8728 43.4155 13.5373 42.5589 15.4966C39.9327 21.5026 39.0478 24.8757 39.0478 31.5651C39.0478 38.2948 40.0152 42.2401 42.5532 48.4501C42.5974 48.5582 42.9178 49.3403 43.0109 49.5687C43.6502 51.1361 44.1705 52.5204 44.5863 53.8271L44.5863 49.8151ZM30.7401 49.8151C32.7422 54.8353 33.5093 58.1165 33.5093 63.2318L32.1247 63.2318C32.1247 59.594 31.7271 56.9292 30.7401 53.8271L30.7401 49.8151ZM30.7401 14.2252C32.7938 9.24736 33.5093 5.91366 33.5093 -0.101557L32.1247 -0.101557C32.1247 4.23188 31.7494 7.10931 30.7401 10.2826L30.7401 14.2252ZM40.4324 63.2318C40.4324 57.8861 39.5947 54.5435 37.3851 49.1259C37.2915 48.8965 36.9709 48.1138 36.927 48.0065C34.4423 41.9266 33.5093 38.122 33.5093 31.5651C33.5093 25.06 34.3552 21.8359 36.9214 15.967C39.5475 9.96094 40.4324 6.58783 40.4324 -0.101557L39.0478 -0.101557C39.0478 6.4035 38.202 9.6276 35.6358 15.4966C33.0097 21.5026 32.1247 24.8757 32.1247 31.5651C32.1247 38.2948 33.0922 42.2401 35.6301 48.4501C35.6743 48.5582 35.9947 49.3403 36.0879 49.5687C38.2446 54.8569 39.0478 58.0615 39.0478 63.2318L40.4324 63.2318Z" fill="black"/>
<path fill-rule="evenodd" clip-rule="evenodd" d="M58.4324 176.482C58.3423 176.256 58.2496 176.026 58.1543 175.793C58.0608 175.563 57.7401 174.78 57.6963 174.673C55.2115 168.593 54.2786 164.789 54.2786 158.232C54.2786 151.727 55.1244 148.503 57.6906 142.634C57.9553 142.028 58.2023 141.45 58.4324 140.892L58.4324 136.949C57.9267 138.539 57.2617 140.204 56.405 142.163C53.7789 148.169 52.894 151.542 52.894 158.232C52.894 164.961 53.8614 168.907 56.3993 175.117C56.4435 175.225 56.7639 176.007 56.8571 176.235C57.4963 177.803 58.0167 179.187 58.4324 180.494L58.4324 176.482ZM44.5863 176.482C46.5884 181.502 47.3555 184.783 47.3555 189.898L45.9709 189.898C45.9709 186.261 45.5733 183.596 44.5863 180.494L44.5863 176.482ZM44.5863 140.892C46.64 135.914 47.3555 132.58 47.3555 126.565L45.9709 126.565C45.9709 130.899 45.5955 133.776 44.5863 136.949L44.5863 140.892ZM54.2786 189.898C54.2786 184.553 53.4408 181.21 51.2313 175.793C51.1377 175.563 50.817 174.78 50.7732 174.673C48.2884 168.593 47.3555 164.789 47.3555 158.232C47.3555 151.727 48.2013 148.503 50.7675 142.634C53.3937 136.628 54.2786 133.254 54.2786 126.565L52.894 126.565C52.894 133.07 52.0481 136.294 49.4819 142.163C46.8558 148.169 45.9709 151.542 45.9709 158.232C45.9709 164.961 46.9383 168.907 49.4763 175.117C49.5204 175.225 49.8409 176.007 49.934 176.235C52.0908 181.524 52.894 184.728 52.894 189.898L54.2786 189.898Z" fill="black"/>
<path fill-rule="evenodd" clip-rule="evenodd" d="M58.4324 113.148C58.3423 112.922 58.2496 112.693 58.1543 112.459C58.0608 112.23 57.7401 111.447 57.6963 111.34C55.2115 105.26 54.2786 101.455 54.2786 94.8984C54.2786 88.3934 55.1244 85.1693 57.6906 79.3003C57.9553 78.695 58.2023 78.1164 58.4324 77.5585L58.4324 73.6159C57.9267 75.2061 57.2617 76.8706 56.405 78.8299C53.7789 84.8359 52.894 88.209 52.894 94.8984C52.894 101.628 53.8614 105.573 56.3993 111.783C56.4435 111.891 56.7639 112.674 56.8571 112.902C57.4963 114.469 58.0167 115.854 58.4324 117.16L58.4324 113.148ZM44.5863 113.148C46.5884 118.169 47.3555 121.45 47.3555 126.565L45.9709 126.565C45.9709 122.927 45.5733 120.263 44.5863 117.16L44.5863 113.148ZM44.5863 77.5585C46.64 72.5807 47.3555 69.247 47.3555 63.2318L45.9709 63.2318C45.9709 67.5652 45.5955 70.4426 44.5863 73.6159L44.5863 77.5585ZM54.2786 126.565C54.2786 121.219 53.4408 117.877 51.2313 112.459C51.1377 112.23 50.817 111.447 50.7732 111.34C48.2884 105.26 47.3555 101.455 47.3555 94.8984C47.3555 88.3934 48.2013 85.1693 50.7675 79.3003C53.3936 73.2943 54.2786 69.9212 54.2786 63.2318L52.894 63.2318C52.894 69.7368 52.0481 72.9609 49.4819 78.8299C46.8558 84.8359 45.9709 88.209 45.9709 94.8984C45.9709 101.628 46.9383 105.573 49.4763 111.783C49.5204 111.891 49.8409 112.674 49.934 112.902C52.0908 118.19 52.894 121.395 52.894 126.565L54.2786 126.565Z" fill="black"/>
<path fill-rule="evenodd" clip-rule="evenodd" d="M58.4324 49.8151C58.3423 49.589 58.2496 49.3594 58.1543 49.1259C58.0608 48.8965 57.7401 48.1138 57.6963 48.0065C55.2115 41.9266 54.2786 38.122 54.2786 31.5651C54.2786 25.06 55.1244 21.8359 57.6906 15.967C57.9553 15.3617 58.2023 14.7831 58.4324 14.2252L58.4324 10.2826C57.9267 11.8728 57.2617 13.5373 56.405 15.4966C53.7789 21.5026 52.894 24.8757 52.894 31.5651C52.894 38.2948 53.8614 42.2401 56.3993 48.4501C56.4435 48.5582 56.7639 49.3403 56.8571 49.5687C57.4963 51.1361 58.0167 52.5204 58.4324 53.8271L58.4324 49.8151ZM44.5863 49.8151C46.5884 54.8353 47.3555 58.1165 47.3555 63.2318L45.9709 63.2318C45.9709 59.594 45.5733 56.9292 44.5863 53.8271L44.5863 49.8151ZM44.5863 14.2252C46.64 9.24736 47.3555 5.91366 47.3555 -0.101557L45.9709 -0.101557C45.9709 4.23188 45.5955 7.10931 44.5863 10.2826L44.5863 14.2252ZM54.2786 63.2318C54.2786 57.8861 53.4408 54.5435 51.2313 49.1259C51.1377 48.8965 50.817 48.1138 50.7732 48.0065C48.2884 41.9266 47.3555 38.122 47.3555 31.5651C47.3555 25.06 48.2013 21.8359 50.7675 15.967C53.3936 9.96094 54.2786 6.58783 54.2786 -0.101558L52.894 -0.101558C52.894 6.4035 52.0481 9.6276 49.4819 15.4966C46.8558 21.5026 45.9709 24.8757 45.9709 31.5651C45.9709 38.2948 46.9383 42.2401 49.4763 48.4501C49.5204 48.5582 49.8409 49.3403 49.934 49.5687C52.0908 54.8569 52.894 58.0615 52.894 63.2318L54.2786 63.2318Z" fill="black"/>
<path fill-rule="evenodd" clip-rule="evenodd" d="M72.2786 176.482C72.1884 176.256 72.0957 176.026 72.0005 175.793C71.9069 175.563 71.5863 174.78 71.5424 174.673C69.0577 168.593 68.1247 164.789 68.1247 158.232C68.1247 151.727 68.9706 148.503 71.5368 142.634C71.8014 142.028 72.0484 141.45 72.2786 140.892L72.2786 136.949C71.7728 138.539 71.1079 140.204 70.2512 142.163C67.625 148.169 66.7401 151.542 66.7401 158.232C66.7401 164.961 67.7075 168.907 70.2455 175.117C70.2897 175.225 70.6101 176.007 70.7032 176.235C71.3425 177.803 71.8628 179.187 72.2786 180.494L72.2786 176.482ZM58.4324 176.482C60.4346 181.502 61.2017 184.783 61.2017 189.898L59.8171 189.898C59.817 186.261 59.4194 183.596 58.4324 180.494L58.4324 176.482ZM58.4324 140.892C60.4861 135.914 61.2017 132.58 61.2017 126.565L59.817 126.565C59.817 130.899 59.4417 133.776 58.4324 136.949L58.4324 140.892ZM68.1247 189.898C68.1247 184.553 67.287 181.21 65.0774 175.793C64.9839 175.563 64.6632 174.78 64.6194 174.673C62.1346 168.593 61.2017 164.789 61.2017 158.232C61.2017 151.727 62.0475 148.503 64.6137 142.634C67.2398 136.628 68.1247 133.254 68.1247 126.565L66.7401 126.565C66.7401 133.07 65.8943 136.294 63.3281 142.163C60.702 148.169 59.817 151.542 59.817 158.232C59.817 164.961 60.7845 168.907 63.3224 175.117C63.3666 175.225 63.687 176.007 63.7802 176.235C65.9369 181.524 66.7401 184.728 66.7401 189.898L68.1247 189.898Z" fill="black"/>
<path fill-rule="evenodd" clip-rule="evenodd" d="M72.2786 113.148C72.1884 112.922 72.0957 112.693 72.0005 112.459C71.9069 112.23 71.5863 111.447 71.5424 111.34C69.0577 105.26 68.1247 101.455 68.1247 94.8984C68.1247 88.3934 68.9706 85.1693 71.5368 79.3003C71.8014 78.695 72.0484 78.1164 72.2786 77.5585L72.2786 73.6159C71.7728 75.2061 71.1079 76.8706 70.2512 78.8299C67.625 84.8359 66.7401 88.209 66.7401 94.8984C66.7401 101.628 67.7075 105.573 70.2455 111.783C70.2897 111.891 70.6101 112.674 70.7032 112.902C71.3425 114.469 71.8628 115.854 72.2786 117.16L72.2786 113.148ZM58.4324 113.148C60.4345 118.169 61.2017 121.45 61.2017 126.565L59.817 126.565C59.817 122.927 59.4194 120.263 58.4324 117.16L58.4324 113.148ZM58.4324 77.5585C60.4861 72.5807 61.2017 69.247 61.2017 63.2318L59.817 63.2318C59.817 67.5652 59.4417 70.4426 58.4324 73.6159L58.4324 77.5585ZM68.1247 126.565C68.1247 121.219 67.287 117.877 65.0774 112.459C64.9838 112.23 64.6632 111.447 64.6194 111.34C62.1346 105.26 61.2017 101.455 61.2017 94.8984C61.2017 88.3934 62.0475 85.1693 64.6137 79.3003C67.2398 73.2943 68.1247 69.9212 68.1247 63.2318L66.7401 63.2318C66.7401 69.7368 65.8943 72.9609 63.3281 78.8299C60.702 84.8359 59.817 88.209 59.817 94.8984C59.817 101.628 60.7845 105.573 63.3224 111.783C63.3666 111.891 63.687 112.674 63.7802 112.902C65.9369 118.19 66.7401 121.395 66.7401 126.565L68.1247 126.565Z" fill="black"/>
<path fill-rule="evenodd" clip-rule="evenodd" d="M72.2786 49.8151C72.1884 49.589 72.0957 49.3594 72.0005 49.1259C71.9069 48.8965 71.5863 48.1138 71.5424 48.0065C69.0577 41.9266 68.1247 38.122 68.1247 31.5651C68.1247 25.06 68.9706 21.8359 71.5368 15.967C71.8014 15.3617 72.0484 14.7831 72.2786 14.2252L72.2786 10.2826C71.7728 11.8728 71.1079 13.5373 70.2512 15.4966C67.625 21.5026 66.7401 24.8757 66.7401 31.5651C66.7401 38.2948 67.7075 42.2401 70.2455 48.4501C70.2897 48.5582 70.6101 49.3403 70.7032 49.5687C71.3425 51.1361 71.8628 52.5204 72.2786 53.8271L72.2786 49.8151ZM58.4324 49.8151C60.4345 54.8353 61.2017 58.1165 61.2017 63.2318L59.817 63.2318C59.817 59.594 59.4194 56.9292 58.4324 53.8271L58.4324 49.8151ZM58.4324 14.2252C60.4861 9.24736 61.2017 5.91366 61.2017 -0.101558L59.817 -0.101558C59.817 4.23188 59.4417 7.10931 58.4324 10.2826L58.4324 14.2252ZM68.1247 63.2318C68.1247 57.8861 67.287 54.5435 65.0774 49.1259C64.9838 48.8965 64.6632 48.1138 64.6194 48.0065C62.1346 41.9266 61.2017 38.122 61.2017 31.5651C61.2017 25.06 62.0475 21.8359 64.6137 15.967C67.2398 9.96094 68.1247 6.58783 68.1247 -0.101558L66.7401 -0.101558C66.7401 6.40349 65.8943 9.6276 63.3281 15.4966C60.702 21.5026 59.817 24.8757 59.817 31.5651C59.817 38.2948 60.7845 42.2401 63.3224 48.4501C63.3666 48.5582 63.687 49.3403 63.7802 49.5687C65.9369 54.8569 66.7401 58.0615 66.7401 63.2318L68.1247 63.2318Z" fill="black"/>
<path fill-rule="evenodd" clip-rule="evenodd" d="M86.1247 176.482C86.0346 176.256 85.9419 176.026 85.8467 175.793C85.7531 175.563 85.4324 174.78 85.3886 174.673C82.9038 168.593 81.9709 164.789 81.9709 158.232C81.9709 151.727 82.8167 148.503 85.3829 142.634C85.6476 142.028 85.8946 141.45 86.1247 140.892L86.1247 136.949C85.619 138.539 84.954 140.204 84.0973 142.163C81.4712 148.169 80.5863 151.542 80.5863 158.232C80.5863 164.961 81.5537 168.907 84.0917 175.117C84.1358 175.225 84.4563 176.007 84.5494 176.235C85.1886 177.803 85.709 179.187 86.1247 180.494L86.1247 176.482ZM72.2786 176.482C74.2807 181.502 75.0478 184.783 75.0478 189.898L73.6632 189.898C73.6632 186.261 73.2656 183.596 72.2786 180.494L72.2786 176.482ZM72.2786 140.892C74.3323 135.914 75.0478 132.58 75.0478 126.565L73.6632 126.565C73.6632 130.899 73.2878 133.776 72.2786 136.949L72.2786 140.892ZM81.9709 189.898C81.9709 184.553 81.1331 181.21 78.9236 175.793C78.83 175.563 78.5094 174.78 78.4655 174.673C75.9807 168.593 75.0478 164.789 75.0478 158.232C75.0478 151.727 75.8937 148.503 78.4598 142.634C81.086 136.628 81.9709 133.254 81.9709 126.565L80.5863 126.565C80.5863 133.07 79.7404 136.294 77.1743 142.163C74.5481 148.169 73.6632 151.542 73.6632 158.232C73.6632 164.961 74.6306 168.907 77.1686 175.117C77.2128 175.225 77.5332 176.007 77.6263 176.235C79.7831 181.524 80.5863 184.728 80.5863 189.898L81.9709 189.898Z" fill="black"/>
<path fill-rule="evenodd" clip-rule="evenodd" d="M86.1247 113.148C86.0346 112.922 85.9419 112.693 85.8467 112.459C85.7531 112.23 85.4324 111.447 85.3886 111.34C82.9038 105.26 81.9709 101.455 81.9709 94.8984C81.9709 88.3934 82.8167 85.1693 85.3829 79.3003C85.6476 78.695 85.8946 78.1164 86.1247 77.5585L86.1247 73.6159C85.619 75.2061 84.954 76.8706 84.0973 78.8299C81.4712 84.8359 80.5863 88.209 80.5863 94.8984C80.5863 101.628 81.5537 105.573 84.0917 111.783C84.1358 111.891 84.4563 112.674 84.5494 112.902C85.1886 114.469 85.709 115.854 86.1247 117.16L86.1247 113.148ZM72.2786 113.148C74.2807 118.169 75.0478 121.45 75.0478 126.565L73.6632 126.565C73.6632 122.927 73.2656 120.263 72.2786 117.16L72.2786 113.148ZM72.2786 77.5585C74.3323 72.5807 75.0478 69.247 75.0478 63.2318L73.6632 63.2318C73.6632 67.5652 73.2878 70.4426 72.2786 73.6159L72.2786 77.5585ZM81.9709 126.565C81.9709 121.219 81.1331 117.877 78.9236 112.459C78.83 112.23 78.5094 111.447 78.4655 111.34C75.9807 105.26 75.0478 101.455 75.0478 94.8984C75.0478 88.3934 75.8937 85.1693 78.4598 79.3003C81.086 73.2943 81.9709 69.9212 81.9709 63.2318L80.5863 63.2318C80.5863 69.7368 79.7404 72.9609 77.1743 78.8299C74.5481 84.8359 73.6632 88.209 73.6632 94.8984C73.6632 101.628 74.6306 105.573 77.1686 111.783C77.2127 111.891 77.5332 112.674 77.6263 112.902C79.7831 118.19 80.5863 121.395 80.5863 126.565L81.9709 126.565Z" fill="black"/>
<path fill-rule="evenodd" clip-rule="evenodd" d="M86.1247 49.8151C86.0346 49.589 85.9419 49.3594 85.8467 49.1259C85.7531 48.8965 85.4324 48.1138 85.3886 48.0065C82.9038 41.9266 81.9709 38.122 81.9709 31.5651C81.9709 25.06 82.8167 21.8359 85.3829 15.967C85.6476 15.3617 85.8946 14.7831 86.1247 14.2252L86.1247 10.2826C85.619 11.8728 84.954 13.5373 84.0973 15.4966C81.4712 21.5026 80.5863 24.8757 80.5863 31.5651C80.5863 38.2948 81.5537 42.2401 84.0917 48.4501C84.1358 48.5582 84.4563 49.3403 84.5494 49.5687C85.1886 51.1361 85.709 52.5204 86.1247 53.8271L86.1247 49.8151ZM72.2786 49.8151C74.2807 54.8353 75.0478 58.1165 75.0478 63.2318L73.6632 63.2318C73.6632 59.594 73.2656 56.9292 72.2786 53.8271L72.2786 49.8151ZM72.2786 14.2252C74.3323 9.24736 75.0478 5.91366 75.0478 -0.101559L73.6632 -0.101558C73.6632 4.23188 73.2878 7.10931 72.2786 10.2826L72.2786 14.2252ZM81.9709 63.2318C81.9709 57.8861 81.1331 54.5435 78.9236 49.1259C78.83 48.8965 78.5094 48.1138 78.4655 48.0065C75.9807 41.9266 75.0478 38.122 75.0478 31.5651C75.0478 25.06 75.8937 21.8359 78.4598 15.967C81.086 9.96094 81.9709 6.58783 81.9709 -0.101559L80.5863 -0.101559C80.5863 6.40349 79.7404 9.6276 77.1742 15.4966C74.5481 21.5026 73.6632 24.8757 73.6632 31.5651C73.6632 38.2948 74.6306 42.2401 77.1686 48.4501C77.2127 48.5582 77.5332 49.3403 77.6263 49.5687C79.7831 54.8569 80.5863 58.0615 80.5863 63.2318L81.9709 63.2318Z" fill="black"/>
<path fill-rule="evenodd" clip-rule="evenodd" d="M99.9709 176.482C99.8807 176.256 99.788 176.026 99.6928 175.793C99.5992 175.563 99.2786 174.78 99.2347 174.673C96.75 168.593 95.817 164.789 95.817 158.232C95.817 151.727 96.6629 148.503 99.2291 142.634C99.4937 142.028 99.7407 141.45 99.9709 140.892L99.9709 136.949C99.4651 138.539 98.8002 140.204 97.9435 142.163C95.3174 148.169 94.4324 151.542 94.4324 158.232C94.4324 164.961 95.3999 168.907 97.9378 175.117C97.982 175.225 98.3024 176.007 98.3955 176.235C99.0348 177.803 99.5551 179.187 99.9709 180.494L99.9709 176.482ZM86.1247 176.482C88.1269 181.502 88.894 184.783 88.894 189.898L87.5093 189.898C87.5093 186.261 87.1117 183.596 86.1247 180.494L86.1247 176.482ZM86.1247 140.892C88.1784 135.914 88.894 132.58 88.894 126.565L87.5093 126.565C87.5093 130.899 87.134 133.776 86.1247 136.949L86.1247 140.892ZM95.817 189.898C95.817 184.553 94.9793 181.21 92.7697 175.793C92.6762 175.563 92.3555 174.78 92.3117 174.673C89.8269 168.593 88.894 164.789 88.894 158.232C88.894 151.727 89.7398 148.503 92.306 142.634C94.9321 136.628 95.817 133.254 95.817 126.565L94.4324 126.565C94.4324 133.07 93.5866 136.294 91.0204 142.163C88.3943 148.169 87.5093 151.542 87.5093 158.232C87.5093 164.961 88.4768 168.907 91.0147 175.117C91.0589 175.225 91.3793 176.007 91.4725 176.235C93.6292 181.524 94.4324 184.728 94.4324 189.898L95.817 189.898Z" fill="black"/>
<path fill-rule="evenodd" clip-rule="evenodd" d="M99.9709 113.148C99.8807 112.922 99.788 112.693 99.6928 112.459C99.5992 112.23 99.2786 111.447 99.2347 111.34C96.75 105.26 95.817 101.455 95.817 94.8984C95.817 88.3934 96.6629 85.1693 99.2291 79.3003C99.4937 78.695 99.7407 78.1164 99.9709 77.5585L99.9709 73.6159C99.4651 75.2061 98.8002 76.8706 97.9435 78.8299C95.3174 84.8359 94.4324 88.209 94.4324 94.8984C94.4324 101.628 95.3998 105.573 97.9378 111.783C97.982 111.891 98.3024 112.674 98.3955 112.902C99.0348 114.469 99.5551 115.854 99.9709 117.16L99.9709 113.148ZM86.1247 113.148C88.1269 118.169 88.894 121.45 88.894 126.565L87.5093 126.565C87.5093 122.927 87.1117 120.263 86.1247 117.16L86.1247 113.148ZM86.1247 77.5585C88.1784 72.5807 88.894 69.247 88.894 63.2318L87.5093 63.2318C87.5093 67.5652 87.134 70.4426 86.1247 73.6159L86.1247 77.5585ZM95.817 126.565C95.817 121.219 94.9793 117.877 92.7697 112.459C92.6762 112.23 92.3555 111.447 92.3117 111.34C89.8269 105.26 88.894 101.455 88.894 94.8984C88.894 88.3934 89.7398 85.1693 92.306 79.3003C94.9321 73.2943 95.817 69.9212 95.817 63.2318L94.4324 63.2318C94.4324 69.7368 93.5866 72.9609 91.0204 78.8299C88.3943 84.8359 87.5093 88.209 87.5093 94.8984C87.5093 101.628 88.4768 105.573 91.0147 111.783C91.0589 111.891 91.3793 112.674 91.4725 112.902C93.6292 118.19 94.4324 121.395 94.4324 126.565L95.817 126.565Z" fill="black"/>
<path fill-rule="evenodd" clip-rule="evenodd" d="M99.9709 49.8151C99.8807 49.589 99.788 49.3594 99.6928 49.1259C99.5992 48.8965 99.2786 48.1138 99.2347 48.0065C96.75 41.9266 95.817 38.122 95.817 31.5651C95.817 25.06 96.6629 21.8359 99.2291 15.967C99.4937 15.3617 99.7407 14.7831 99.9709 14.2252L99.9709 10.2826C99.4651 11.8728 98.8002 13.5373 97.9435 15.4966C95.3174 21.5026 94.4324 24.8757 94.4324 31.5651C94.4324 38.2948 95.3998 42.2401 97.9378 48.4501C97.982 48.5582 98.3024 49.3403 98.3955 49.5687C99.0348 51.1361 99.5551 52.5204 99.9709 53.8271L99.9709 49.8151ZM86.1247 49.8151C88.1268 54.8353 88.894 58.1165 88.894 63.2318L87.5093 63.2318C87.5093 59.594 87.1117 56.9292 86.1247 53.8271L86.1247 49.8151ZM86.1247 14.2252C88.1784 9.24735 88.894 5.91366 88.894 -0.101559L87.5093 -0.101559C87.5093 4.23188 87.134 7.10931 86.1247 10.2826L86.1247 14.2252ZM95.817 63.2318C95.817 57.8861 94.9793 54.5435 92.7697 49.1259C92.6762 48.8965 92.3555 48.1138 92.3117 48.0065C89.8269 41.9266 88.894 38.122 88.894 31.5651C88.894 25.06 89.7398 21.8359 92.306 15.967C94.9321 9.96094 95.817 6.58783 95.817 -0.101559L94.4324 -0.101559C94.4324 6.40349 93.5866 9.6276 91.0204 15.4966C88.3943 21.5026 87.5093 24.8757 87.5093 31.5651C87.5093 38.2948 88.4768 42.2401 91.0147 48.4501C91.0589 48.5582 91.3793 49.3403 91.4725 49.5687C93.6292 54.8569 94.4324 58.0615 94.4324 63.2318L95.817 63.2318Z" fill="black"/>
<path fill-rule="evenodd" clip-rule="evenodd" d="M113.817 176.482C113.727 176.256 113.634 176.026 113.539 175.793C113.445 175.563 113.125 174.78 113.081 174.673C110.596 168.593 109.663 164.789 109.663 158.232C109.663 151.727 110.509 148.503 113.075 142.634C113.34 142.028 113.587 141.45 113.817 140.892L113.817 136.949C113.311 138.539 112.646 140.204 111.79 142.163C109.164 148.169 108.279 151.542 108.279 158.232C108.279 164.961 109.246 168.907 111.784 175.117C111.828 175.225 112.149 176.007 112.242 176.235C112.881 177.803 113.401 179.187 113.817 180.494L113.817 176.482ZM99.9709 176.482C101.973 181.502 102.74 184.783 102.74 189.898L101.356 189.898C101.356 186.261 100.958 183.596 99.9709 180.494L99.9709 176.482ZM99.9709 140.892C102.025 135.914 102.74 132.58 102.74 126.565L101.356 126.565C101.356 130.899 100.98 133.776 99.9709 136.949L99.9709 140.892ZM109.663 189.898C109.663 184.553 108.825 181.21 106.616 175.793C106.522 175.563 106.202 174.78 106.158 174.673C103.673 168.593 102.74 164.789 102.74 158.232C102.74 151.727 103.586 148.503 106.152 142.634C108.778 136.628 109.663 133.254 109.663 126.565L108.279 126.565C108.279 133.07 107.433 136.294 104.867 142.163C102.24 148.169 101.356 151.542 101.356 158.232C101.356 164.961 102.323 168.907 104.861 175.117C104.905 175.225 105.225 176.007 105.319 176.235C107.475 181.524 108.279 184.728 108.279 189.898L109.663 189.898Z" fill="black"/>
<path fill-rule="evenodd" clip-rule="evenodd" d="M113.817 113.148C113.727 112.922 113.634 112.693 113.539 112.459C113.445 112.23 113.125 111.447 113.081 111.34C110.596 105.26 109.663 101.455 109.663 94.8984C109.663 88.3934 110.509 85.1693 113.075 79.3003C113.34 78.695 113.587 78.1164 113.817 77.5585L113.817 73.6159C113.311 75.2061 112.646 76.8706 111.79 78.8299C109.164 84.8359 108.279 88.209 108.279 94.8984C108.279 101.628 109.246 105.573 111.784 111.783C111.828 111.891 112.149 112.674 112.242 112.902C112.881 114.469 113.401 115.854 113.817 117.16L113.817 113.148ZM99.9709 113.148C101.973 118.169 102.74 121.45 102.74 126.565L101.356 126.565C101.356 122.927 100.958 120.263 99.9709 117.16L99.9709 113.148ZM99.9709 77.5585C102.025 72.5807 102.74 69.247 102.74 63.2318L101.355 63.2318C101.355 67.5652 100.98 70.4426 99.9709 73.6159L99.9709 77.5585ZM109.663 126.565C109.663 121.219 108.825 117.877 106.616 112.459C106.522 112.23 106.202 111.447 106.158 111.34C103.673 105.26 102.74 101.455 102.74 94.8984C102.74 88.3934 103.586 85.1693 106.152 79.3003C108.778 73.2943 109.663 69.9212 109.663 63.2318L108.279 63.2318C108.279 69.7368 107.433 72.9609 104.867 78.8299C102.24 84.8359 101.356 88.209 101.356 94.8984C101.356 101.628 102.323 105.573 104.861 111.783C104.905 111.891 105.225 112.674 105.319 112.902C107.475 118.19 108.279 121.395 108.279 126.565L109.663 126.565Z" fill="black"/>
<path fill-rule="evenodd" clip-rule="evenodd" d="M113.817 49.8151C113.727 49.589 113.634 49.3594 113.539 49.1259C113.445 48.8965 113.125 48.1138 113.081 48.0065C110.596 41.9266 109.663 38.122 109.663 31.5651C109.663 25.06 110.509 21.8359 113.075 15.967C113.34 15.3617 113.587 14.7831 113.817 14.2252L113.817 10.2826C113.311 11.8728 112.646 13.5373 111.79 15.4966C109.164 21.5026 108.279 24.8757 108.279 31.5651C108.279 38.2948 109.246 42.2401 111.784 48.4501C111.828 48.5582 112.149 49.3403 112.242 49.5687C112.881 51.1361 113.401 52.5204 113.817 53.8271L113.817 49.8151ZM99.9709 49.8151C101.973 54.8353 102.74 58.1165 102.74 63.2318L101.355 63.2318C101.355 59.594 100.958 56.9292 99.9709 53.8271L99.9709 49.8151ZM99.9709 14.2252C102.025 9.24735 102.74 5.91366 102.74 -0.10156L101.355 -0.10156C101.355 4.23188 100.98 7.10931 99.9709 10.2826L99.9709 14.2252ZM109.663 63.2318C109.663 57.8861 108.825 54.5435 106.616 49.1259C106.522 48.8965 106.202 48.1138 106.158 48.0065C103.673 41.9266 102.74 38.122 102.74 31.5651C102.74 25.06 103.586 21.8359 106.152 15.967C108.778 9.96094 109.663 6.58783 109.663 -0.10156L108.279 -0.10156C108.279 6.40349 107.433 9.6276 104.867 15.4966C102.24 21.5026 101.355 24.8757 101.355 31.5651C101.355 38.2948 102.323 42.2401 104.861 48.4501C104.905 48.5582 105.225 49.3403 105.319 49.5687C107.475 54.8569 108.279 58.0615 108.279 63.2318L109.663 63.2318Z" fill="black"/>
<path fill-rule="evenodd" clip-rule="evenodd" d="M127.663 176.482C127.573 176.256 127.48 176.026 127.385 175.793C127.292 175.563 126.971 174.78 126.927 174.673C124.442 168.593 123.509 164.789 123.509 158.232C123.509 151.727 124.355 148.503 126.921 142.634C127.186 142.028 127.433 141.45 127.663 140.892L127.663 136.949C127.157 138.539 126.492 140.204 125.636 142.163C123.01 148.169 122.125 151.542 122.125 158.232C122.125 164.961 123.092 168.907 125.63 175.117C125.674 175.225 125.995 176.007 126.088 176.235C126.727 177.803 127.247 179.187 127.663 180.494L127.663 176.482ZM113.817 176.482C115.819 181.502 116.586 184.783 116.586 189.898L115.202 189.898C115.202 186.261 114.804 183.596 113.817 180.494L113.817 176.482ZM113.817 140.892C115.871 135.914 116.586 132.58 116.586 126.565L115.202 126.565C115.202 130.899 114.826 133.776 113.817 136.949L113.817 140.892ZM123.509 189.898C123.509 184.553 122.672 181.21 120.462 175.793C120.368 175.563 120.048 174.78 120.004 174.673C117.519 168.593 116.586 164.789 116.586 158.232C116.586 151.727 117.432 148.503 119.998 142.634C122.624 136.628 123.509 133.254 123.509 126.565L122.125 126.565C122.125 133.07 121.279 136.294 118.713 142.163C116.087 148.169 115.202 151.542 115.202 158.232C115.202 164.961 116.169 168.907 118.707 175.117C118.751 175.225 119.072 176.007 119.165 176.235C121.322 181.524 122.125 184.728 122.125 189.898L123.509 189.898Z" fill="black"/>
<path fill-rule="evenodd" clip-rule="evenodd" d="M127.663 113.148C127.573 112.922 127.48 112.693 127.385 112.459C127.292 112.23 126.971 111.447 126.927 111.34C124.442 105.26 123.509 101.455 123.509 94.8984C123.509 88.3934 124.355 85.1693 126.921 79.3003C127.186 78.695 127.433 78.1164 127.663 77.5585L127.663 73.6159C127.157 75.2061 126.492 76.8706 125.636 78.8299C123.01 84.8359 122.125 88.209 122.125 94.8984C122.125 101.628 123.092 105.573 125.63 111.783C125.674 111.891 125.995 112.674 126.088 112.902C126.727 114.469 127.247 115.854 127.663 117.16L127.663 113.148ZM113.817 113.148C115.819 118.169 116.586 121.45 116.586 126.565L115.202 126.565C115.202 122.927 114.804 120.263 113.817 117.16L113.817 113.148ZM113.817 77.5585C115.871 72.5807 116.586 69.247 116.586 63.2318L115.202 63.2318C115.202 67.5652 114.826 70.4426 113.817 73.6159L113.817 77.5585ZM123.509 126.565C123.509 121.219 122.672 117.877 120.462 112.459C120.368 112.23 120.048 111.447 120.004 111.34C117.519 105.26 116.586 101.455 116.586 94.8984C116.586 88.3934 117.432 85.1693 119.998 79.3003C122.624 73.2943 123.509 69.9212 123.509 63.2318L122.125 63.2318C122.125 69.7368 121.279 72.9609 118.713 78.8299C116.087 84.8359 115.202 88.209 115.202 94.8984C115.202 101.628 116.169 105.573 118.707 111.783C118.751 111.891 119.072 112.674 119.165 112.902C121.322 118.19 122.125 121.395 122.125 126.565L123.509 126.565Z" fill="black"/>
<path fill-rule="evenodd" clip-rule="evenodd" d="M127.663 49.8151C127.573 49.589 127.48 49.3594 127.385 49.1259C127.292 48.8965 126.971 48.1138 126.927 48.0065C124.442 41.9266 123.509 38.122 123.509 31.5651C123.509 25.06 124.355 21.8359 126.921 15.967C127.186 15.3617 127.433 14.7831 127.663 14.2252L127.663 10.2826C127.157 11.8728 126.492 13.5373 125.636 15.4966C123.01 21.5026 122.125 24.8757 122.125 31.5651C122.125 38.2948 123.092 42.2401 125.63 48.4501C125.674 48.5582 125.995 49.3403 126.088 49.5687C126.727 51.1361 127.247 52.5204 127.663 53.8271L127.663 49.8151ZM113.817 49.8151C115.819 54.8353 116.586 58.1165 116.586 63.2318L115.202 63.2318C115.202 59.594 114.804 56.9292 113.817 53.8271L113.817 49.8151ZM113.817 14.2252C115.871 9.24735 116.586 5.91366 116.586 -0.10156L115.202 -0.10156C115.202 4.23188 114.826 7.10931 113.817 10.2826L113.817 14.2252ZM123.509 63.2318C123.509 57.8861 122.672 54.5435 120.462 49.1259C120.368 48.8965 120.048 48.1138 120.004 48.0065C117.519 41.9266 116.586 38.122 116.586 31.5651C116.586 25.06 117.432 21.8359 119.998 15.967C122.624 9.96094 123.509 6.58783 123.509 -0.101561L122.125 -0.101561C122.125 6.40349 121.279 9.6276 118.713 15.4966C116.087 21.5026 115.202 24.8757 115.202 31.5651C115.202 38.2948 116.169 42.2401 118.707 48.4501C118.751 48.5582 119.072 49.3403 119.165 49.5687C121.322 54.8569 122.125 58.0615 122.125 63.2318L123.509 63.2318Z" fill="black"/>
<path fill-rule="evenodd" clip-rule="evenodd" d="M141.509 176.482C141.419 176.256 141.327 176.026 141.231 175.793C141.138 175.563 140.817 174.78 140.773 174.673C138.288 168.593 137.356 164.789 137.356 158.232C137.356 151.727 138.201 148.503 140.768 142.634C141.032 142.028 141.279 141.45 141.509 140.892L141.509 136.949C141.004 138.539 140.339 140.204 139.482 142.163C136.856 148.169 135.971 151.542 135.971 158.232C135.971 164.961 136.938 168.907 139.476 175.117C139.52 175.225 139.841 176.007 139.934 176.235C140.573 177.803 141.094 179.187 141.509 180.494L141.509 176.482ZM127.663 176.482C129.665 181.502 130.432 184.783 130.432 189.898L129.048 189.898C129.048 186.261 128.65 183.596 127.663 180.494L127.663 176.482ZM127.663 140.892C129.717 135.914 130.432 132.58 130.432 126.565L129.048 126.565C129.048 130.899 128.672 133.776 127.663 136.949L127.663 140.892ZM137.356 189.898C137.356 184.553 136.518 181.21 134.308 175.793C134.215 175.563 133.894 174.78 133.85 174.673C131.365 168.593 130.432 164.789 130.432 158.232C130.432 151.727 131.278 148.503 133.844 142.634C136.471 136.628 137.356 133.254 137.356 126.565L135.971 126.565C135.971 133.07 135.125 136.294 132.559 142.163C129.933 148.169 129.048 151.542 129.048 158.232C129.048 164.961 130.015 168.907 132.553 175.117C132.597 175.225 132.918 176.007 133.011 176.235C135.168 181.524 135.971 184.728 135.971 189.898L137.356 189.898Z" fill="black"/>
<path fill-rule="evenodd" clip-rule="evenodd" d="M141.509 113.148C141.419 112.922 141.326 112.693 141.231 112.459C141.138 112.23 140.817 111.447 140.773 111.34C138.288 105.26 137.356 101.455 137.356 94.8984C137.356 88.3934 138.201 85.1693 140.768 79.3003C141.032 78.695 141.279 78.1164 141.509 77.5585L141.509 73.6159C141.004 75.2061 140.339 76.8706 139.482 78.8299C136.856 84.8359 135.971 88.209 135.971 94.8984C135.971 101.628 136.938 105.573 139.476 111.783C139.52 111.891 139.841 112.674 139.934 112.902C140.573 114.469 141.094 115.854 141.509 117.16L141.509 113.148ZM127.663 113.148C129.665 118.169 130.432 121.45 130.432 126.565L129.048 126.565C129.048 122.927 128.65 120.263 127.663 117.16L127.663 113.148ZM127.663 77.5585C129.717 72.5807 130.432 69.247 130.432 63.2318L129.048 63.2318C129.048 67.5652 128.672 70.4426 127.663 73.6159L127.663 77.5585ZM137.356 126.565C137.356 121.219 136.518 117.877 134.308 112.459C134.215 112.23 133.894 111.447 133.85 111.34C131.365 105.26 130.432 101.455 130.432 94.8984C130.432 88.3934 131.278 85.1693 133.844 79.3003C136.471 73.2943 137.356 69.9212 137.356 63.2318L135.971 63.2318C135.971 69.7368 135.125 72.9609 132.559 78.8299C129.933 84.8359 129.048 88.209 129.048 94.8984C129.048 101.628 130.015 105.573 132.553 111.783C132.597 111.891 132.918 112.674 133.011 112.902C135.168 118.19 135.971 121.395 135.971 126.565L137.356 126.565Z" fill="black"/>
<path fill-rule="evenodd" clip-rule="evenodd" d="M141.509 49.8151C141.419 49.589 141.326 49.3594 141.231 49.1259C141.138 48.8965 140.817 48.1138 140.773 48.0065C138.288 41.9266 137.356 38.122 137.356 31.5651C137.356 25.06 138.201 21.8359 140.768 15.967C141.032 15.3617 141.279 14.7831 141.509 14.2252L141.509 10.2826C141.004 11.8728 140.339 13.5373 139.482 15.4965C136.856 21.5026 135.971 24.8757 135.971 31.5651C135.971 38.2948 136.938 42.2401 139.476 48.4501C139.52 48.5582 139.841 49.3403 139.934 49.5687C140.573 51.1361 141.094 52.5204 141.509 53.8271L141.509 49.8151ZM127.663 49.8151C129.665 54.8353 130.432 58.1165 130.432 63.2318L129.048 63.2318C129.048 59.594 128.65 56.9292 127.663 53.8271L127.663 49.8151ZM127.663 14.2252C129.717 9.24735 130.432 5.91366 130.432 -0.101561L129.048 -0.101561C129.048 4.23187 128.672 7.1093 127.663 10.2826L127.663 14.2252ZM137.356 63.2318C137.356 57.8861 136.518 54.5435 134.308 49.1259C134.215 48.8965 133.894 48.1138 133.85 48.0065C131.365 41.9266 130.432 38.122 130.432 31.5651C130.432 25.06 131.278 21.8359 133.844 15.967C136.471 9.96094 137.356 6.58783 137.356 -0.101561L135.971 -0.101561C135.971 6.40349 135.125 9.6276 132.559 15.4966C129.933 21.5026 129.048 24.8757 129.048 31.5651C129.048 38.2948 130.015 42.2401 132.553 48.4501C132.597 48.5582 132.918 49.3403 133.011 49.5687C135.168 54.8569 135.971 58.0615 135.971 63.2318L137.356 63.2318Z" fill="black"/>
<path fill-rule="evenodd" clip-rule="evenodd" d="M155.356 176.482C155.265 176.256 155.173 176.026 155.077 175.793C154.984 175.563 154.663 174.78 154.619 174.673C152.135 168.593 151.202 164.789 151.202 158.232C151.202 151.727 152.048 148.503 154.614 142.634C154.878 142.028 155.125 141.45 155.356 140.892L155.356 136.949C154.85 138.539 154.185 140.204 153.328 142.163C150.702 148.169 149.817 151.542 149.817 158.232C149.817 164.961 150.784 168.907 153.322 175.117C153.367 175.225 153.687 176.007 153.78 176.235C154.419 177.803 154.94 179.187 155.356 180.494L155.356 176.482ZM141.509 176.482C143.511 181.502 144.279 184.783 144.279 189.898L142.894 189.898C142.894 186.261 142.496 183.596 141.509 180.494L141.509 176.482ZM141.509 140.892C143.563 135.914 144.279 132.58 144.279 126.565L142.894 126.565C142.894 130.899 142.519 133.776 141.509 136.949L141.509 140.892ZM151.202 189.898C151.202 184.553 150.364 181.21 148.154 175.793C148.061 175.563 147.74 174.78 147.696 174.673C145.212 168.593 144.279 164.789 144.279 158.232C144.279 151.727 145.124 148.503 147.691 142.634C150.317 136.628 151.202 133.254 151.202 126.565L149.817 126.565C149.817 133.07 148.971 136.294 146.405 142.163C143.779 148.169 142.894 151.542 142.894 158.232C142.894 164.961 143.861 168.907 146.399 175.117C146.444 175.225 146.764 176.007 146.857 176.235C149.014 181.524 149.817 184.728 149.817 189.898L151.202 189.898Z" fill="black"/>
<path fill-rule="evenodd" clip-rule="evenodd" d="M155.356 113.148C155.265 112.922 155.173 112.693 155.077 112.459C154.984 112.23 154.663 111.447 154.619 111.34C152.135 105.26 151.202 101.455 151.202 94.8984C151.202 88.3934 152.047 85.1693 154.614 79.3003C154.878 78.695 155.125 78.1164 155.356 77.5585L155.356 73.6159C154.85 75.2061 154.185 76.8706 153.328 78.8299C150.702 84.8359 149.817 88.209 149.817 94.8984C149.817 101.628 150.784 105.573 153.322 111.783C153.367 111.891 153.687 112.674 153.78 112.902C154.419 114.469 154.94 115.854 155.356 117.16L155.356 113.148ZM141.509 113.148C143.511 118.169 144.279 121.45 144.279 126.565L142.894 126.565C142.894 122.927 142.496 120.263 141.509 117.16L141.509 113.148ZM141.509 77.5585C143.563 72.5807 144.279 69.247 144.279 63.2318L142.894 63.2318C142.894 67.5652 142.519 70.4426 141.509 73.6159L141.509 77.5585ZM151.202 126.565C151.202 121.219 150.364 117.877 148.154 112.459C148.061 112.23 147.74 111.447 147.696 111.34C145.212 105.26 144.279 101.455 144.279 94.8984C144.279 88.3934 145.124 85.1693 147.691 79.3003C150.317 73.2943 151.202 69.9212 151.202 63.2318L149.817 63.2318C149.817 69.7368 148.971 72.9609 146.405 78.8299C143.779 84.8359 142.894 88.209 142.894 94.8984C142.894 101.628 143.861 105.573 146.399 111.783C146.444 111.891 146.764 112.674 146.857 112.902C149.014 118.19 149.817 121.395 149.817 126.565L151.202 126.565Z" fill="black"/>
<path fill-rule="evenodd" clip-rule="evenodd" d="M155.356 49.8151C155.265 49.589 155.173 49.3594 155.077 49.1259C154.984 48.8965 154.663 48.1138 154.619 48.0065C152.135 41.9266 151.202 38.122 151.202 31.5651C151.202 25.06 152.047 21.8359 154.614 15.967C154.878 15.3617 155.125 14.7831 155.356 14.2252L155.356 10.2826C154.85 11.8728 154.185 13.5373 153.328 15.4965C150.702 21.5026 149.817 24.8757 149.817 31.5651C149.817 38.2948 150.784 42.2401 153.322 48.4501C153.367 48.5582 153.687 49.3403 153.78 49.5687C154.419 51.1361 154.94 52.5204 155.356 53.8271L155.356 49.8151ZM141.509 49.8151C143.511 54.8353 144.279 58.1165 144.279 63.2318L142.894 63.2318C142.894 59.594 142.496 56.9292 141.509 53.8271L141.509 49.8151ZM141.509 14.2252C143.563 9.24735 144.279 5.91365 144.279 -0.101562L142.894 -0.101562C142.894 4.23187 142.519 7.1093 141.509 10.2826L141.509 14.2252ZM151.202 63.2318C151.202 57.8861 150.364 54.5435 148.154 49.1259C148.061 48.8965 147.74 48.1138 147.696 48.0065C145.212 41.9266 144.279 38.122 144.279 31.5651C144.279 25.06 145.124 21.8359 147.691 15.967C150.317 9.96094 151.202 6.58783 151.202 -0.101562L149.817 -0.101562C149.817 6.40349 148.971 9.6276 146.405 15.4965C143.779 21.5026 142.894 24.8757 142.894 31.5651C142.894 38.2948 143.861 42.2401 146.399 48.4501C146.444 48.5582 146.764 49.3403 146.857 49.5687C149.014 54.8569 149.817 58.0615 149.817 63.2318L151.202 63.2318Z" fill="black"/>
<path fill-rule="evenodd" clip-rule="evenodd" d="M169.202 176.482C169.111 176.256 169.019 176.026 168.924 175.793C168.83 175.563 168.509 174.78 168.466 174.673C165.981 168.593 165.048 164.789 165.048 158.232C165.048 151.727 165.894 148.503 168.46 142.634C168.725 142.028 168.971 141.45 169.202 140.892L169.202 136.949C168.696 138.539 168.031 140.204 167.174 142.163C164.548 148.169 163.663 151.542 163.663 158.232C163.663 164.961 164.631 168.907 167.169 175.117C167.213 175.225 167.533 176.007 167.626 176.235C168.266 177.803 168.786 179.187 169.202 180.494L169.202 176.482ZM155.356 176.482C157.358 181.502 158.125 184.783 158.125 189.898L156.74 189.898C156.74 186.261 156.342 183.596 155.356 180.494L155.356 176.482ZM155.356 140.892C157.409 135.914 158.125 132.58 158.125 126.565L156.74 126.565C156.74 130.899 156.365 133.776 155.356 136.949L155.356 140.892ZM165.048 189.898C165.048 184.553 164.21 181.21 162.001 175.793C161.907 175.563 161.586 174.78 161.542 174.673C159.058 168.593 158.125 164.789 158.125 158.232C158.125 151.727 158.971 148.503 161.537 142.634C164.163 136.628 165.048 133.254 165.048 126.565L163.663 126.565C163.663 133.07 162.817 136.294 160.251 142.163C157.625 148.169 156.74 151.542 156.74 158.232C156.74 164.961 157.708 168.907 160.246 175.117C160.29 175.225 160.61 176.007 160.703 176.235C162.86 181.524 163.663 184.728 163.663 189.898L165.048 189.898Z" fill="black"/>
<path fill-rule="evenodd" clip-rule="evenodd" d="M169.202 113.148C169.111 112.922 169.019 112.693 168.924 112.459C168.83 112.23 168.509 111.447 168.466 111.34C165.981 105.26 165.048 101.455 165.048 94.8984C165.048 88.3934 165.894 85.1693 168.46 79.3003C168.725 78.695 168.971 78.1164 169.202 77.5585L169.202 73.6159C168.696 75.2061 168.031 76.8706 167.174 78.8299C164.548 84.8359 163.663 88.209 163.663 94.8984C163.663 101.628 164.631 105.573 167.169 111.783C167.213 111.891 167.533 112.674 167.626 112.902C168.266 114.469 168.786 115.854 169.202 117.16L169.202 113.148ZM155.356 113.148C157.358 118.169 158.125 121.45 158.125 126.565L156.74 126.565C156.74 122.927 156.342 120.263 155.356 117.16L155.356 113.148ZM155.356 77.5585C157.409 72.5807 158.125 69.247 158.125 63.2318L156.74 63.2318C156.74 67.5652 156.365 70.4426 155.356 73.6159L155.356 77.5585ZM165.048 126.565C165.048 121.219 164.21 117.877 162.001 112.459C161.907 112.23 161.586 111.447 161.542 111.34C159.058 105.26 158.125 101.455 158.125 94.8984C158.125 88.3934 158.971 85.1693 161.537 79.3003C164.163 73.2943 165.048 69.9212 165.048 63.2318L163.663 63.2318C163.663 69.7368 162.817 72.9609 160.251 78.8299C157.625 84.8359 156.74 88.209 156.74 94.8984C156.74 101.628 157.708 105.573 160.246 111.783C160.29 111.891 160.61 112.674 160.703 112.902C162.86 118.19 163.663 121.395 163.663 126.565L165.048 126.565Z" fill="black"/>
<path fill-rule="evenodd" clip-rule="evenodd" d="M169.202 49.8151C169.111 49.589 169.019 49.3594 168.924 49.1259C168.83 48.8965 168.509 48.1138 168.466 48.0065C165.981 41.9266 165.048 38.122 165.048 31.5651C165.048 25.06 165.894 21.8359 168.46 15.967C168.724 15.3617 168.971 14.7831 169.202 14.2252L169.202 10.2826C168.696 11.8728 168.031 13.5373 167.174 15.4965C164.548 21.5026 163.663 24.8757 163.663 31.5651C163.663 38.2948 164.631 42.2401 167.169 48.4501C167.213 48.5582 167.533 49.3403 167.626 49.5687C168.266 51.1361 168.786 52.5204 169.202 53.8271L169.202 49.8151ZM155.356 49.8151C157.358 54.8353 158.125 58.1165 158.125 63.2318L156.74 63.2318C156.74 59.594 156.342 56.9292 155.356 53.8271L155.356 49.8151ZM155.356 14.2252C157.409 9.24735 158.125 5.91365 158.125 -0.101562L156.74 -0.101562C156.74 4.23187 156.365 7.1093 155.356 10.2826L155.356 14.2252ZM165.048 63.2318C165.048 57.8861 164.21 54.5435 162.001 49.1259C161.907 48.8965 161.586 48.1138 161.542 48.0065C159.058 41.9266 158.125 38.122 158.125 31.5651C158.125 25.06 158.971 21.8359 161.537 15.967C164.163 9.96094 165.048 6.58783 165.048 -0.101563L163.663 -0.101562C163.663 6.40349 162.817 9.62759 160.251 15.4965C157.625 21.5026 156.74 24.8757 156.74 31.5651C156.74 38.2948 157.708 42.2401 160.245 48.4501C160.29 48.5582 160.61 49.3403 160.703 49.5687C162.86 54.8569 163.663 58.0615 163.663 63.2318L165.048 63.2318Z" fill="black"/>
<g style="mix-blend-mode:darken">
<path d="M164.702 107.898C164.702 146.838 133.358 178.398 94.7017 178.398C56.0451 178.398 24.7017 146.838 24.7017 107.898C24.7017 68.959 56.0451 37.3984 94.7017 37.3984C133.358 37.3984 164.702 68.959 164.702 107.898Z" stroke="black"/>
</g>
<g style="mix-blend-mode:darken">
<path d="M164.702 107.898C164.702 146.838 133.358 178.398 94.7017 178.398C56.0451 178.398 24.7017 146.838 24.7017 107.898C24.7017 68.959 56.0451 37.3984 94.7017 37.3984C133.358 37.3984 164.702 68.959 164.702 107.898Z" stroke="black"/>
</g>
</g>
</g>
<defs>
<clipPath id="clip0_67_1704">
<rect width="215.021" height="215.241" fill="white" transform="translate(0.489746)"/>
</clipPath>
</defs>
</svg>
