<svg width="533" height="60" viewBox="0 0 533 60" fill="none" xmlns="http://www.w3.org/2000/svg">
<path fill-rule="evenodd" clip-rule="evenodd" d="M481.691 13.0641C495.693 21.0855 508.033 28.155 524.548 26.0384C528.656 25.5118 532.414 28.4156 532.94 32.5241C533.467 36.6326 530.563 40.3901 526.455 40.9167C504.746 43.699 488.208 34.1522 474.768 26.3937C473.687 25.7701 472.627 25.1581 471.586 24.5649C457.114 16.3215 446.198 11.4302 431.63 18.196C430.056 18.9272 428.249 20.2791 425.102 22.7294L424.965 22.8364C422.066 25.0941 418.416 27.9369 413.87 30.6348C404.406 36.2508 391.53 40.9782 372.203 40.9783C354.416 40.9783 343.297 34.8823 333.759 29.6534C333.1 29.292 332.448 28.9348 331.802 28.584C322.273 23.4069 313.56 19.2448 297.894 21.0454C289.775 21.9786 285.372 23.9107 282.782 25.766C280.263 27.5706 278.808 29.7534 277.331 32.6679C277.085 33.153 276.812 33.7281 276.509 34.3663C275.263 36.9879 273.511 40.6761 271.072 43.5812C267.478 47.8635 262.475 50.7649 255.208 51.8638C247.711 52.9976 240.265 51.2291 233.339 48.743C228.22 46.9055 222.746 44.4188 217.309 41.9493C215.47 41.1143 213.636 40.2812 211.821 39.4758C196.964 32.882 181.253 27.1219 163.1 29.2699C153.61 30.3928 147.968 32.3245 144.12 34.3797C140.307 36.4168 137.833 38.7702 134.566 41.8793L134.431 42.0075C131.086 45.1903 127.057 48.9747 120.738 52.2023C114.465 55.4064 106.357 57.8639 94.8079 59.3255C82.4909 60.8844 72.8379 59.6427 64.6348 56.7751C56.5742 53.9574 50.2862 49.6772 44.8952 45.9822L44.742 45.8771C39.2441 42.1087 34.7685 39.0409 29.3722 37.0787C24.1559 35.182 17.7451 34.2281 8.66249 35.6517C4.57032 36.2931 0.732977 33.4957 0.0915514 29.4036C-0.549874 25.3114 2.24751 21.4741 6.33968 20.8326C17.7373 19.0461 26.7261 20.1557 34.4981 22.9817C41.7137 25.6054 47.5805 29.6322 52.687 33.1371C52.9181 33.2957 53.1476 33.4532 53.3756 33.6095C58.8197 37.341 63.6248 40.532 69.5847 42.6154C75.4021 44.649 82.697 45.7386 92.9246 44.4443C103.284 43.1332 109.603 41.0465 113.915 38.8439C118.182 36.6648 120.897 34.1799 124.092 31.1401C124.237 31.0017 124.384 30.8617 124.533 30.7204C127.651 27.7478 131.414 24.1611 137.053 21.149C142.979 17.9837 150.545 15.6508 161.337 14.3738C183.749 11.7219 202.638 18.9891 217.906 25.7654C220.04 26.7126 222.07 27.6343 224.018 28.5187C229.263 30.9004 233.914 33.012 238.407 34.6251C244.494 36.81 249.128 37.6127 252.965 37.0324C257.033 36.4172 258.592 35.119 259.583 33.9377C260.682 32.629 261.323 31.2935 262.373 29.1063C262.808 28.1997 263.313 27.1469 263.95 25.889C265.904 22.0329 268.699 17.4022 274.047 13.5716C279.324 9.79192 286.404 7.26731 296.182 6.14351C316.309 3.8301 328.298 9.60995 338.963 15.4033C339.561 15.7284 340.153 16.0518 340.74 16.3724C350.162 21.5199 358.323 25.9783 372.203 25.9783C388.799 25.9783 399.036 21.9954 406.215 17.7352C409.918 15.5377 412.928 13.1984 415.886 10.8947L416.208 10.6439C418.872 8.56771 421.999 6.12995 425.312 4.59162C447.255 -5.59954 464.348 3.17925 479.01 11.5311C479.911 12.0445 480.805 12.5562 481.691 13.0641Z" fill="#98FAF0" stroke="black" stroke-linecap="round"/>
</svg>
