<svg width="216" height="217" viewBox="0 0 216 217" fill="none" xmlns="http://www.w3.org/2000/svg">
<g clip-path="url(#clip0_67_1667)">
<mask id="mask0_67_1667" style="mask-type:alpha" maskUnits="userSpaceOnUse" x="32" y="53" width="132" height="132">
<path d="M162.181 55.3792L162.399 54.5537L161.572 54.7672L34.1324 87.6877L33.288 87.9059L33.9029 88.5244L127.691 182.852L128.306 183.471L128.529 182.628L162.181 55.3792Z" fill="black" stroke="black"/>
</mask>
<g mask="url(#mask0_67_1667)">
<path fill-rule="evenodd" clip-rule="evenodd" d="M42.4278 38.7292C42.6208 38.6682 42.817 38.6052 43.0165 38.5404C43.2125 38.4767 43.8813 38.2582 43.973 38.2284C49.1678 36.5362 52.3803 35.9942 57.8181 36.3963C63.2128 36.7953 65.8346 37.6959 70.5442 40.1885C71.0299 40.4456 71.4945 40.6863 71.943 40.9118L75.2127 41.1536C73.925 40.6358 72.5855 39.9811 71.0133 39.1489C66.1938 36.5981 63.4508 35.6559 57.9032 35.2456C52.3221 34.8329 48.9908 35.395 43.6848 37.1233C43.5925 37.1534 42.9241 37.3717 42.729 37.4351C41.3899 37.8703 40.2098 38.2178 39.1006 38.4832L42.4278 38.7292ZM43.2787 27.2222C38.9923 28.5782 36.2241 29.0145 31.9819 28.7008L32.067 27.5501C35.0839 27.7732 37.3182 27.6062 39.9515 26.9762L43.2787 27.2222ZM72.794 29.4048C76.796 31.4168 79.5167 32.2159 84.5052 32.5848L84.5903 31.4341C80.9965 31.1683 78.6333 30.6799 76.0636 29.6466L72.794 29.4048ZM31.5565 34.4543C35.9897 34.7822 38.8133 34.2909 43.4419 32.7869C43.6379 32.7232 44.3068 32.5047 44.3984 32.4749C49.5933 30.7827 52.8058 30.2407 58.2435 30.6428C63.6383 31.0417 66.2601 31.9424 70.9696 34.435C75.7891 36.9858 78.5321 37.9281 84.0797 38.3383L84.1648 37.1876C78.7701 36.7887 76.1483 35.888 71.4387 33.3954C66.6192 30.8446 63.8762 29.9023 58.3286 29.4921C52.7476 29.0794 49.4163 29.6414 44.1103 31.3698C44.0179 31.3999 43.3496 31.6182 43.1544 31.6816C38.6363 33.1497 35.9293 33.6207 31.6415 33.3036L31.5565 34.4543Z" fill="black"/>
<path fill-rule="evenodd" clip-rule="evenodd" d="M94.951 42.6132C95.1441 42.5521 95.3402 42.4892 95.5397 42.4244C95.7357 42.3607 96.4046 42.1422 96.4962 42.1123C101.691 40.4202 104.904 39.8782 110.341 40.2803C115.736 40.6792 118.358 41.5799 123.067 44.0725C123.553 44.3295 124.018 44.5703 124.466 44.7958L127.736 45.0376C126.448 44.5197 125.109 43.865 123.537 43.0329C118.717 40.4821 115.974 39.5398 110.426 39.1296C104.845 38.7169 101.514 39.2789 96.2081 41.0073C96.1157 41.0374 95.4474 41.2557 95.2522 41.3191C93.9131 41.7542 92.7331 42.1018 91.6238 42.3672L94.951 42.6132ZM95.802 31.1062C91.5156 32.4622 88.7473 32.8985 84.5052 32.5848L84.5903 31.4341C87.6072 31.6572 89.8415 31.4901 92.4748 30.8601L95.802 31.1062ZM125.317 33.2887C129.319 35.3008 132.04 36.0999 137.028 36.4687L137.114 35.318C133.52 35.0523 131.157 34.5639 128.587 33.5305L125.317 33.2887ZM84.0797 38.3383C88.5129 38.6661 91.3365 38.1749 95.9652 36.6708C96.1612 36.6072 96.83 36.3887 96.9217 36.3588C102.117 34.6667 105.329 34.1247 110.767 34.5268C116.162 34.9257 118.783 35.8264 123.493 38.3189C128.312 40.8697 131.055 41.812 136.603 42.2223L136.688 41.0716C131.293 40.6726 128.672 39.772 123.962 37.2794C119.142 34.7286 116.4 33.7863 110.852 33.3761C105.271 32.9634 101.94 33.5254 96.6335 35.2538C96.5412 35.2839 95.8728 35.5022 95.6777 35.5656C91.1596 37.0337 88.4526 37.5047 84.1648 37.1876L84.0797 38.3383Z" fill="black"/>
<path fill-rule="evenodd" clip-rule="evenodd" d="M147.474 46.4972C147.667 46.4361 147.863 46.3732 148.063 46.3083C148.259 46.2446 148.928 46.0262 149.019 45.9963C154.214 44.3041 157.427 43.7621 162.865 44.1643C168.259 44.5632 170.881 45.4638 175.591 47.9564C176.076 48.2135 176.541 48.4542 176.99 48.6797L180.259 48.9215C178.972 48.4037 177.632 47.749 176.06 46.9169C171.24 44.3661 168.497 43.4238 162.95 43.0135C157.369 42.6008 154.037 43.1629 148.731 44.8913C148.639 44.9213 147.971 45.1397 147.775 45.2031C146.436 45.6382 145.256 45.9857 144.147 46.2511L147.474 46.4972ZM148.325 34.9901C144.039 36.3461 141.271 36.7824 137.028 36.4687L137.114 35.318C140.13 35.5411 142.365 35.3741 144.998 34.7441L148.325 34.9901ZM177.84 37.1727C181.842 39.1847 184.563 39.9838 189.552 40.3527L189.637 39.202C186.043 38.9363 183.68 38.4478 181.11 37.4145L177.84 37.1727ZM136.603 42.2223C141.036 42.5501 143.86 42.0588 148.488 40.5548C148.684 40.4911 149.353 40.2726 149.445 40.2428C154.64 38.5506 157.852 38.0086 163.29 38.4107C168.685 38.8097 171.307 39.7103 176.016 42.2029C180.836 44.7537 183.579 45.696 189.126 46.1062L189.211 44.9555C183.817 44.5566 181.195 43.6559 176.485 41.1634C171.666 38.6126 168.923 37.6703 163.375 37.26C157.794 36.8473 154.463 37.4094 149.157 39.1377C149.064 39.1678 148.396 39.3861 148.201 39.4495C143.683 40.9177 140.976 41.3886 136.688 41.0716L136.603 42.2223Z" fill="black"/>
<path fill-rule="evenodd" clip-rule="evenodd" d="M41.5769 50.2363C41.7699 50.1752 41.9661 50.1123 42.1655 50.0474C42.3616 49.9838 43.0304 49.7653 43.122 49.7354C48.3169 48.0433 51.5294 47.5013 56.9672 47.9034C62.3619 48.3023 64.9837 49.203 69.6932 51.6955C70.179 51.9526 70.6436 52.1934 71.0921 52.4189L74.3618 52.6606C73.0741 52.1428 71.7346 51.4881 70.1624 50.656C65.3429 48.1052 62.5999 47.1629 57.0523 46.7527C51.4712 46.34 48.1399 46.902 42.8339 48.6304C42.7415 48.6605 42.0732 48.8788 41.8781 48.9422C40.5389 49.3773 39.3589 49.7249 38.2497 49.9902L41.5769 50.2363ZM42.4278 38.7292C38.1414 40.0853 35.3732 40.5216 31.131 40.2079L31.2161 39.0572C34.233 39.2803 36.4673 39.1132 39.1006 38.4832L42.4278 38.7292ZM71.943 40.9118C75.945 42.9238 78.6658 43.7229 83.6543 44.0918L83.7394 42.9411C80.1456 42.6754 77.7823 42.187 75.2127 41.1536L71.943 40.9118ZM30.7055 45.9614C35.1388 46.2892 37.9623 45.798 42.591 44.2939C42.787 44.2302 43.4559 44.0117 43.5475 43.9819C48.7424 42.2897 51.9549 41.7477 57.3926 42.1498C62.7874 42.5488 65.4092 43.4494 70.1187 45.942C74.9382 48.4928 77.6812 49.4351 83.2288 49.8454L83.3139 48.6946C77.9192 48.2957 75.2973 47.3951 70.5878 44.9025C65.7683 42.3517 63.0253 41.4094 57.4777 40.9991C51.8967 40.5864 48.5654 41.1485 43.2593 42.8769C43.167 42.9069 42.4986 43.1253 42.3035 43.1887C37.7854 44.6568 35.0784 45.1278 30.7906 44.8107L30.7055 45.9614Z" fill="black"/>
<path fill-rule="evenodd" clip-rule="evenodd" d="M94.1001 54.1202C94.2932 54.0592 94.4893 53.9962 94.6888 53.9314C94.8848 53.8677 95.5537 53.6492 95.6453 53.6194C100.84 51.9272 104.053 51.3852 109.49 51.7873C114.885 52.1863 117.507 53.0869 122.216 55.5795C122.702 55.8366 123.167 56.0773 123.615 56.3028L126.885 56.5446C125.597 56.0268 124.258 55.3721 122.686 54.54C117.866 51.9892 115.123 51.0469 109.576 50.6366C103.994 50.2239 100.663 50.786 95.3571 52.5143C95.2648 52.5444 94.5964 52.7627 94.4013 52.8261C93.0622 53.2613 91.8822 53.6088 90.7729 53.8742L94.1001 54.1202ZM94.951 42.6132C90.6647 43.9692 87.8964 44.4055 83.6543 44.0918L83.7394 42.9411C86.7562 43.1642 88.9906 42.9972 91.6238 42.3672L94.951 42.6132ZM124.466 44.7958C128.468 46.8078 131.189 47.6069 136.178 47.9758L136.263 46.8251C132.669 46.5593 130.306 46.0709 127.736 45.0376L124.466 44.7958ZM83.2288 49.8454C87.662 50.1732 90.4856 49.6819 95.1143 48.1779C95.3103 48.1142 95.9791 47.8957 96.0708 47.8659C101.266 46.1737 104.478 45.6317 109.916 46.0338C115.311 46.4327 117.932 47.3334 122.642 49.826C127.461 52.3768 130.204 53.3191 135.752 53.7293L135.837 52.5786C130.442 52.1797 127.821 51.279 123.111 48.7864C118.292 46.2356 115.549 45.2933 110.001 44.8831C104.42 44.4704 101.089 45.0324 95.7826 46.7608C95.6903 46.7909 95.0219 47.0092 94.8268 47.0726C90.3087 48.5407 87.6016 49.0117 83.3139 48.6946L83.2288 49.8454Z" fill="black"/>
<path fill-rule="evenodd" clip-rule="evenodd" d="M146.623 58.0042C146.816 57.9431 147.013 57.8802 147.212 57.8154C147.408 57.7517 148.077 57.5332 148.169 57.5033C153.363 55.8112 156.576 55.2692 162.014 55.6713C167.408 56.0702 170.03 56.9709 174.74 59.4635C175.225 59.7205 175.69 59.9613 176.139 60.1868L179.408 60.4286C178.121 59.9107 176.781 59.256 175.209 58.4239C170.389 55.8731 167.646 54.9308 162.099 54.5206C156.518 54.1079 153.186 54.6699 147.88 56.3983C147.788 56.4284 147.12 56.6467 146.925 56.7101C145.585 57.1452 144.405 57.4928 143.296 57.7582L146.623 58.0042ZM147.474 46.4972C143.188 47.8532 140.42 48.2895 136.178 47.9758L136.263 46.8251C139.28 47.0482 141.514 46.8811 144.147 46.2511L147.474 46.4972ZM176.99 48.6797C180.992 50.6918 183.712 51.4909 188.701 51.8598L188.786 50.7091C185.192 50.4433 182.829 49.9549 180.259 48.9215L176.99 48.6797ZM135.752 53.7293C140.185 54.0571 143.009 53.5659 147.638 52.0619C147.834 51.9982 148.502 51.7797 148.594 51.7498C153.789 50.0577 157.001 49.5157 162.439 49.9178C167.834 50.3167 170.456 51.2174 175.165 53.7099C179.985 56.2608 182.728 57.203 188.275 57.6133L188.36 56.4626C182.966 56.0636 180.344 55.163 175.634 52.6704C170.815 50.1196 168.072 49.1773 162.524 48.7671C156.943 48.3544 153.612 48.9164 148.306 50.6448C148.214 50.6749 147.545 50.8932 147.35 50.9566C142.832 52.4247 140.125 52.8957 135.837 52.5786L135.752 53.7293Z" fill="black"/>
<path fill-rule="evenodd" clip-rule="evenodd" d="M40.7259 61.7433C40.919 61.6823 41.1151 61.6193 41.3146 61.5545C41.5106 61.4908 42.1795 61.2723 42.2711 61.2425C47.466 59.5503 50.6785 59.0083 56.1163 59.4104C61.511 59.8093 64.1328 60.71 68.8423 63.2026C69.328 63.4597 69.7927 63.7004 70.2412 63.9259L73.5109 64.1677C72.2232 63.6498 70.8837 62.9951 69.3115 62.163C64.4919 59.6122 61.749 58.6699 56.2013 58.2597C50.6203 57.847 47.289 58.409 41.983 60.1374C41.8906 60.1675 41.2223 60.3858 41.0271 60.4492C39.688 60.8844 38.508 61.2319 37.3987 61.4973L40.7259 61.7433ZM41.5769 50.2363C37.2905 51.5923 34.5222 52.0286 30.2801 51.7149L30.3652 50.5642C33.3821 50.7873 35.6164 50.6203 38.2497 49.9902L41.5769 50.2363ZM71.0921 52.4189C75.0941 54.4309 77.8148 55.23 82.8033 55.5989L82.8884 54.4482C79.2947 54.1824 76.9314 53.694 74.3618 52.6606L71.0921 52.4189ZM29.8546 57.4684C34.2878 57.7963 37.1114 57.305 41.7401 55.801C41.9361 55.7373 42.6049 55.5188 42.6966 55.4889C47.8914 53.7968 51.1039 53.2548 56.5417 53.6569C61.9364 54.0558 64.5583 54.9565 69.2678 57.4491C74.0873 59.9999 76.8303 60.9422 82.3779 61.3524L82.463 60.2017C77.0682 59.8028 74.4464 58.9021 69.7369 56.4095C64.9174 53.8587 62.1744 52.9164 56.6268 52.5062C51.0458 52.0935 47.7145 52.6555 42.4084 54.3839C42.3161 54.414 41.6477 54.6323 41.4526 54.6957C36.9345 56.1638 34.2275 56.6348 29.9397 56.3177L29.8546 57.4684Z" fill="black"/>
<path fill-rule="evenodd" clip-rule="evenodd" d="M93.2492 65.6273C93.4423 65.5662 93.6384 65.5033 93.8379 65.4385C94.0339 65.3748 94.7027 65.1563 94.7944 65.1264C99.9892 63.4343 103.202 62.8923 108.64 63.2944C114.034 63.6933 116.656 64.594 121.366 67.0866C121.851 67.3436 122.316 67.5844 122.764 67.8099L126.034 68.0517C124.746 67.5338 123.407 66.8791 121.835 66.047C117.015 63.4962 114.272 62.5539 108.725 62.1437C103.144 61.731 99.8123 62.293 94.5062 64.0214C94.4139 64.0515 93.7455 64.2698 93.5504 64.3332C92.2113 64.7683 91.0312 65.1159 89.922 65.3813L93.2492 65.6273ZM94.1001 54.1202C89.8138 55.4763 87.0455 55.9126 82.8033 55.5989L82.8884 54.4482C85.9053 54.6713 88.1397 54.5042 90.7729 53.8742L94.1001 54.1202ZM123.615 56.3028C127.617 58.3148 130.338 59.1139 135.327 59.4828L135.412 58.3321C131.818 58.0664 129.455 57.578 126.885 56.5446L123.615 56.3028ZM82.3779 61.3524C86.8111 61.6802 89.6347 61.189 94.2633 59.6849C94.4594 59.6212 95.1282 59.4028 95.2199 59.3729C100.415 57.6807 103.627 57.1387 109.065 57.5409C114.46 57.9398 117.082 58.8404 121.791 61.333C126.611 63.8838 129.354 64.8261 134.901 65.2364L134.986 64.0857C129.592 63.6867 126.97 62.7861 122.26 60.2935C117.441 57.7427 114.698 56.8004 109.15 56.3901C103.569 55.9774 100.238 56.5395 94.9317 58.2679C94.8393 58.2979 94.171 58.5163 93.9759 58.5797C89.4578 60.0478 86.7507 60.5188 82.463 60.2017L82.3779 61.3524Z" fill="black"/>
<path fill-rule="evenodd" clip-rule="evenodd" d="M145.772 69.5113C145.966 69.4502 146.162 69.3872 146.361 69.3224C146.557 69.2587 147.226 69.0402 147.318 69.0104C152.513 67.3182 155.725 66.7762 161.163 67.1783C166.558 67.5773 169.179 68.4779 173.889 70.9705C174.375 71.2276 174.839 71.4683 175.288 71.6938L178.557 71.9356C177.27 71.4178 175.93 70.7631 174.358 69.931C169.538 67.3802 166.795 66.4379 161.248 66.0276C155.667 65.6149 152.336 66.177 147.029 67.9053C146.937 67.9354 146.269 68.1538 146.074 68.2172C144.735 68.6523 143.555 68.9998 142.445 69.2652L145.772 69.5113ZM146.623 58.0042C142.337 59.3602 139.569 59.7965 135.327 59.4828L135.412 58.3321C138.429 58.5552 140.663 58.3882 143.296 57.7582L146.623 58.0042ZM176.139 60.1868C180.141 62.1988 182.861 62.9979 187.85 63.3668L187.935 62.2161C184.341 61.9503 181.978 61.4619 179.408 60.4286L176.139 60.1868ZM134.901 65.2364C139.334 65.5642 142.158 65.0729 146.787 63.5689C146.983 63.5052 147.651 63.2867 147.743 63.2569C152.938 61.5647 156.15 61.0227 161.588 61.4248C166.983 61.8237 169.605 62.7244 174.314 65.217C179.134 67.7678 181.877 68.7101 187.424 69.1203L187.509 67.9696C182.115 67.5707 179.493 66.67 174.783 64.1774C169.964 61.6266 167.221 60.6843 161.673 60.2741C156.092 59.8614 152.761 60.4235 147.455 62.1518C147.363 62.1819 146.694 62.4002 146.499 62.4636C141.981 63.9317 139.274 64.4027 134.986 64.0857L134.901 65.2364Z" fill="black"/>
<path fill-rule="evenodd" clip-rule="evenodd" d="M39.875 73.2504C40.0681 73.1893 40.2642 73.1264 40.4637 73.0615C40.6597 72.9978 41.3286 72.7794 41.4202 72.7495C46.6151 71.0573 49.8276 70.5153 55.2653 70.9175C60.6601 71.3164 63.2819 72.217 67.9914 74.7096C68.4771 74.9667 68.9418 75.2074 69.3903 75.433L72.66 75.6747C71.3723 75.1569 70.0327 74.5022 68.4605 73.6701C63.641 71.1193 60.898 70.177 55.3504 69.7668C49.7694 69.354 46.4381 69.9161 41.132 71.6445C41.0397 71.6745 40.3713 71.8929 40.1762 71.9563C38.8371 72.3914 37.6571 72.7389 36.5478 73.0043L39.875 73.2504ZM40.7259 61.7433C36.4396 63.0994 33.6713 63.5356 29.4292 63.222L29.5143 62.0712C32.5311 62.2943 34.7655 62.1273 37.3987 61.4973L40.7259 61.7433ZM70.2412 63.9259C74.2432 65.9379 76.9639 66.737 81.9524 67.1059L82.0375 65.9552C78.4437 65.6895 76.0805 65.201 73.5109 64.1677L70.2412 63.9259ZM29.0037 68.9755C33.4369 69.3033 36.2605 68.812 40.8892 67.308C41.0852 67.2443 41.754 67.0258 41.8457 66.996C47.0405 65.3038 50.253 64.7618 55.6908 65.1639C61.0855 65.5629 63.7074 66.4635 68.4169 68.9561C73.2364 71.5069 75.9794 72.4492 81.527 72.8594L81.6121 71.7087C76.2173 71.3098 73.5955 70.4091 68.886 67.9166C64.0665 65.3658 61.3235 64.4235 55.7759 64.0132C50.1948 63.6005 46.8635 64.1626 41.5575 65.8909C41.4652 65.921 40.7968 66.1394 40.6017 66.2028C36.0836 67.6709 33.3765 68.1418 29.0888 67.8248L29.0037 68.9755Z" fill="black"/>
<path fill-rule="evenodd" clip-rule="evenodd" d="M92.3983 77.1343C92.5913 77.0733 92.7875 77.0103 92.987 76.9455C93.183 76.8818 93.8518 76.6633 93.9435 76.6335C99.1383 74.9413 102.351 74.3993 107.789 74.8014C113.183 75.2003 115.805 76.101 120.515 78.5936C121 78.8507 121.465 79.0914 121.914 79.3169L125.183 79.5587C123.896 79.0409 122.556 78.3862 120.984 77.554C116.164 75.0032 113.421 74.0609 107.874 73.6507C102.293 73.238 98.9613 73.8001 93.6553 75.5284C93.563 75.5585 92.8946 75.7768 92.6995 75.8402C91.3604 76.2754 90.1803 76.6229 89.0711 76.8883L92.3983 77.1343ZM93.2492 65.6273C88.9629 66.9833 86.1946 67.4196 81.9524 67.1059L82.0375 65.9552C85.0544 66.1783 87.2888 66.0113 89.922 65.3813L93.2492 65.6273ZM122.764 67.8099C126.766 69.8219 129.487 70.621 134.476 70.9899L134.561 69.8392C130.967 69.5734 128.604 69.085 126.034 68.0517L122.764 67.8099ZM81.527 72.8594C85.9602 73.1873 88.7838 72.696 93.4124 71.192C93.6084 71.1283 94.2773 70.9098 94.3689 70.8799C99.5638 69.1878 102.776 68.6458 108.214 69.0479C113.609 69.4468 116.231 70.3475 120.94 72.8401C125.76 75.3909 128.503 76.3332 134.05 76.7434L134.135 75.5927C128.741 75.1938 126.119 74.2931 121.409 71.8005C116.59 69.2497 113.847 68.3074 108.299 67.8972C102.718 67.4845 99.3868 68.0465 94.0808 69.7749C93.9884 69.805 93.3201 70.0233 93.1249 70.0867C88.6068 71.5548 85.8998 72.0258 81.6121 71.7087L81.527 72.8594Z" fill="black"/>
<path fill-rule="evenodd" clip-rule="evenodd" d="M144.922 81.0183C145.115 80.9572 145.311 80.8943 145.51 80.8295C145.706 80.7658 146.375 80.5473 146.467 80.5174C151.662 78.8253 154.874 78.2833 160.312 78.6854C165.707 79.0843 168.328 79.985 173.038 82.4776C173.524 82.7346 173.988 82.9754 174.437 83.2009L177.707 83.4427C176.419 82.9248 175.079 82.2701 173.507 81.438C168.688 78.8872 165.945 77.9449 160.397 77.5347C154.816 77.122 151.485 77.684 146.179 79.4124C146.086 79.4425 145.418 79.6608 145.223 79.7242C143.884 80.1593 142.704 80.5069 141.594 80.7723L144.922 81.0183ZM145.772 69.5113C141.486 70.8673 138.718 71.3036 134.476 70.9899L134.561 69.8392C137.578 70.0623 139.812 69.8952 142.445 69.2652L145.772 69.5113ZM175.288 71.6938C179.29 73.7058 182.01 74.505 186.999 74.8738L187.084 73.7231C183.49 73.4574 181.127 72.969 178.557 71.9356L175.288 71.6938ZM134.05 76.7434C138.483 77.0712 141.307 76.58 145.936 75.0759C146.132 75.0122 146.801 74.7938 146.892 74.7639C152.087 73.0718 155.3 72.5298 160.737 72.9319C166.132 73.3308 168.754 74.2315 173.463 76.724C178.283 79.2748 181.026 80.2171 186.573 80.6274L186.659 79.4767C181.264 79.0777 178.642 78.1771 173.933 75.6845C169.113 73.1337 166.37 72.1914 160.822 71.7812C155.241 71.3685 151.91 71.9305 146.604 73.6589C146.512 73.6889 145.843 73.9073 145.648 73.9707C141.13 75.4388 138.423 75.9098 134.135 75.5927L134.05 76.7434Z" fill="black"/>
<path fill-rule="evenodd" clip-rule="evenodd" d="M39.0241 84.7574C39.2172 84.6963 39.4133 84.6334 39.6128 84.5686C39.8088 84.5049 40.4776 84.2864 40.5693 84.2565C45.7641 82.5644 48.9767 82.0224 54.4144 82.4245C59.8092 82.8234 62.431 83.7241 67.1405 86.2167C67.6262 86.4738 68.0908 86.7145 68.5394 86.94L71.8091 87.1818C70.5214 86.6639 69.1818 86.0092 67.6096 85.1771C62.7901 82.6263 60.0471 81.684 54.4995 81.2738C48.9185 80.8611 45.5872 81.4231 40.2811 83.1515C40.1888 83.1816 39.5204 83.3999 39.3253 83.4633C37.9862 83.8985 36.8062 84.246 35.6969 84.5114L39.0241 84.7574ZM39.875 73.2504C35.5887 74.6064 32.8204 75.0427 28.5782 74.729L28.6633 73.5783C31.6802 73.8014 33.9146 73.6343 36.5478 73.0043L39.875 73.2504ZM69.3903 75.433C73.3923 77.445 76.113 78.2441 81.1015 78.613L81.1866 77.4623C77.5928 77.1965 75.2296 76.7081 72.66 75.6747L69.3903 75.433ZM28.1528 80.4825C32.586 80.8103 35.4096 80.3191 40.0382 78.8151C40.2343 78.7514 40.9031 78.5329 40.9948 78.503C46.1896 76.8109 49.4021 76.2689 54.8399 76.671C60.2346 77.0699 62.8564 77.9706 67.5659 80.4632C72.3855 83.014 75.1284 83.9562 80.6761 84.3665L80.7611 83.2158C75.3664 82.8168 72.7446 81.9162 68.0351 79.4236C63.2156 76.8728 60.4726 75.9305 54.925 75.5203C49.3439 75.1076 46.0126 75.6696 40.7066 77.398C40.6142 77.4281 39.9459 77.6464 39.7508 77.7098C35.2327 79.1779 32.5256 79.6489 28.2379 79.3318L28.1528 80.4825Z" fill="black"/>
<path fill-rule="evenodd" clip-rule="evenodd" d="M91.5474 88.6414C91.7404 88.5803 91.9366 88.5174 92.1361 88.4525C92.3321 88.3888 93.0009 88.1704 93.0926 88.1405C98.2874 86.4484 101.5 85.9064 106.938 86.3085C112.332 86.7074 114.954 87.6081 119.664 90.1006C120.149 90.3577 120.614 90.5985 121.063 90.824L124.332 91.0657C123.045 90.5479 121.705 89.8932 120.133 89.0611C115.313 86.5103 112.57 85.568 107.023 85.1578C101.442 84.7451 98.1104 85.3071 92.8044 87.0355C92.712 87.0656 92.0437 87.2839 91.8486 87.3473C90.5094 87.7824 89.3294 88.13 88.2202 88.3953L91.5474 88.6414ZM92.3983 77.1343C88.1119 78.4904 85.3437 78.9267 81.1015 78.613L81.1866 77.4623C84.2035 77.6853 86.4378 77.5183 89.0711 76.8883L92.3983 77.1343ZM121.914 79.3169C125.916 81.3289 128.636 82.128 133.625 82.4969L133.71 81.3462C130.116 81.0805 127.753 80.5921 125.183 79.5587L121.914 79.3169ZM80.6761 84.3665C85.1093 84.6943 87.9328 84.2031 92.5615 82.699C92.7575 82.6353 93.4264 82.4168 93.518 82.387C98.7129 80.6948 101.925 80.1528 107.363 80.5549C112.758 80.9539 115.38 81.8545 120.089 84.3471C124.909 86.8979 127.652 87.8402 133.199 88.2504L133.284 87.0997C127.89 86.7008 125.268 85.8001 120.558 83.3076C115.739 80.7568 112.996 79.8145 107.448 79.4042C101.867 78.9915 98.5359 79.5536 93.2298 81.2819C93.1375 81.312 92.4691 81.5304 92.274 81.5938C87.7559 83.0619 85.0489 83.5328 80.7611 83.2158L80.6761 84.3665Z" fill="black"/>
<path fill-rule="evenodd" clip-rule="evenodd" d="M144.071 92.5253C144.264 92.4643 144.46 92.4013 144.659 92.3365C144.855 92.2728 145.524 92.0543 145.616 92.0245C150.811 90.3323 154.023 89.7903 159.461 90.1924C164.856 90.5914 167.477 91.492 172.187 93.9846C172.673 94.2417 173.137 94.4824 173.586 94.7079L176.856 94.9497C175.568 94.4319 174.228 93.7772 172.656 92.945C167.837 90.3942 165.094 89.452 159.546 89.0417C153.965 88.629 150.634 89.1911 145.328 90.9194C145.235 90.9495 144.567 91.1678 144.372 91.2312C143.033 91.6664 141.853 92.0139 140.743 92.2793L144.071 92.5253ZM144.922 81.0183C140.635 82.3743 137.867 82.8106 133.625 82.4969L133.71 81.3462C136.727 81.5693 138.961 81.4023 141.594 80.7723L144.922 81.0183ZM174.437 83.2009C178.439 85.2129 181.16 86.012 186.148 86.3809L186.233 85.2302C182.639 84.9644 180.276 84.476 177.707 83.4427L174.437 83.2009ZM133.199 88.2504C137.633 88.5783 140.456 88.087 145.085 86.583C145.281 86.5193 145.95 86.3008 146.041 86.271C151.236 84.5788 154.449 84.0368 159.886 84.4389C165.281 84.8378 167.903 85.7385 172.612 88.2311C177.432 90.7819 180.175 91.7242 185.723 92.1344L185.808 90.9837C180.413 90.5848 177.791 89.6841 173.082 87.1915C168.262 84.6407 165.519 83.6984 159.971 83.2882C154.39 82.8755 151.059 83.4375 145.753 85.1659C145.661 85.196 144.992 85.4143 144.797 85.4777C140.279 86.9458 137.572 87.4168 133.284 87.0997L133.199 88.2504Z" fill="black"/>
<path fill-rule="evenodd" clip-rule="evenodd" d="M38.1732 96.2645C38.3663 96.2034 38.5624 96.1404 38.7619 96.0756C38.9579 96.0119 39.6267 95.7934 39.7184 95.7636C44.9132 94.0714 48.1257 93.5294 53.5635 93.9315C58.9582 94.3305 61.5801 95.2311 66.2896 97.7237C66.7753 97.9808 67.2399 98.2215 67.6885 98.447L70.9581 98.6888C69.6704 98.171 68.3309 97.5163 66.7587 96.6842C61.9392 94.1334 59.1962 93.1911 53.6486 92.7808C48.0675 92.3681 44.7362 92.9302 39.4302 94.6586C39.3379 94.6886 38.6695 94.907 38.4744 94.9704C37.1353 95.4055 35.9552 95.753 34.846 96.0184L38.1732 96.2645ZM39.0241 84.7574C34.7378 86.1134 31.9695 86.5497 27.7273 86.236L27.8124 85.0853C30.8293 85.3084 33.0637 85.1414 35.6969 84.5114L39.0241 84.7574ZM68.5394 86.94C72.5414 88.952 75.2621 89.7511 80.2506 90.12L80.3357 88.9693C76.7419 88.7035 74.3787 88.2151 71.8091 87.1818L68.5394 86.94ZM27.3019 91.9896C31.7351 92.3174 34.5587 91.8261 39.1873 90.3221C39.3834 90.2584 40.0522 90.0399 40.1438 90.0101C45.3387 88.3179 48.5512 87.7759 53.989 88.178C59.3837 88.5769 62.0055 89.4776 66.715 91.9702C71.5345 94.521 74.2775 95.4633 79.8251 95.8735L79.9102 94.7228C74.5155 94.3239 71.8937 93.4232 67.1842 90.9306C62.3647 88.3798 59.6217 87.4376 54.0741 87.0273C48.493 86.6146 45.1617 87.1767 39.8557 88.905C39.7633 88.9351 39.095 89.1534 38.8998 89.2168C34.3818 90.6849 31.6747 91.1559 27.387 90.8389L27.3019 91.9896Z" fill="black"/>
<path fill-rule="evenodd" clip-rule="evenodd" d="M90.6965 100.148C90.8895 100.087 91.0856 100.024 91.2851 99.9596C91.4812 99.8959 92.15 99.6774 92.2416 99.6476C97.4365 97.9554 100.649 97.4134 106.087 97.8155C111.481 98.2144 114.103 99.1151 118.813 101.608C119.299 101.865 119.763 102.105 120.212 102.331L123.481 102.573C122.194 102.055 120.854 101.4 119.282 100.568C114.462 98.0173 111.719 97.075 106.172 96.6648C100.591 96.2521 97.2595 96.8141 91.9535 98.5425C91.8611 98.5726 91.1928 98.7909 90.9976 98.8543C89.6585 99.2895 88.4785 99.637 87.3693 99.9024L90.6965 100.148ZM91.5474 88.6414C87.261 89.9974 84.4928 90.4337 80.2506 90.12L80.3357 88.9693C83.3526 89.1924 85.5869 89.0253 88.2202 88.3953L91.5474 88.6414ZM121.063 90.824C125.065 92.836 127.785 93.6351 132.774 94.004L132.859 92.8533C129.265 92.5875 126.902 92.0991 124.332 91.0657L121.063 90.824ZM79.8251 95.8735C84.2584 96.2014 87.0819 95.7101 91.7106 94.2061C91.9066 94.1424 92.5754 93.9239 92.6671 93.894C97.862 92.2019 101.074 91.6599 106.512 92.062C111.907 92.4609 114.529 93.3616 119.238 95.8542C124.058 98.405 126.801 99.3473 132.348 99.7575L132.433 98.6068C127.039 98.2079 124.417 97.3072 119.707 94.8146C114.888 92.2638 112.145 91.3215 106.597 90.9113C101.016 90.4986 97.685 91.0606 92.3789 92.789C92.2866 92.8191 91.6182 93.0374 91.4231 93.1008C86.905 94.5689 84.198 95.0399 79.9102 94.7228L79.8251 95.8735Z" fill="black"/>
<path fill-rule="evenodd" clip-rule="evenodd" d="M143.22 104.032C143.413 103.971 143.609 103.908 143.808 103.844C144.004 103.78 144.673 103.561 144.765 103.532C149.96 101.839 153.172 101.297 158.61 101.699C164.005 102.098 166.627 102.999 171.336 105.492C171.822 105.749 172.286 105.989 172.735 106.215L176.005 106.457C174.717 105.939 173.377 105.284 171.805 104.452C166.986 101.901 164.243 100.959 158.695 100.549C153.114 100.136 149.783 100.698 144.477 102.426C144.384 102.457 143.716 102.675 143.521 102.738C142.182 103.173 141.002 103.521 139.893 103.786L143.22 104.032ZM144.071 92.5253C139.784 93.8814 137.016 94.3177 132.774 94.004L132.859 92.8533C135.876 93.0764 138.11 92.9093 140.743 92.2793L144.071 92.5253ZM173.586 94.7079C177.588 96.7199 180.309 97.519 185.297 97.8879L185.382 96.7372C181.788 96.4715 179.425 95.9831 176.856 94.9497L173.586 94.7079ZM132.348 99.7575C136.782 100.085 139.605 99.5941 144.234 98.09C144.43 98.0263 145.099 97.8078 145.19 97.778C150.385 96.0858 153.598 95.5438 159.035 95.9459C164.43 96.3449 167.052 97.2455 171.762 99.7381C176.581 102.289 179.324 103.231 184.872 103.641L184.957 102.491C179.562 102.092 176.94 101.191 172.231 98.6986C167.411 96.1478 164.668 95.2055 159.121 94.7952C153.54 94.3825 150.208 94.9446 144.902 96.673C144.81 96.703 144.141 96.9214 143.946 96.9848C139.428 98.4529 136.721 98.9238 132.433 98.6068L132.348 99.7575Z" fill="black"/>
<path fill-rule="evenodd" clip-rule="evenodd" d="M37.3223 107.771C37.5153 107.71 37.7115 107.647 37.911 107.583C38.107 107.519 38.7758 107.3 38.8675 107.271C44.0623 105.578 47.2748 105.036 52.7126 105.439C58.1073 105.838 60.7291 106.738 65.4386 109.231C65.9244 109.488 66.389 109.729 66.8375 109.954L70.1072 110.196C68.8195 109.678 67.48 109.023 65.9078 108.191C61.0883 105.64 58.3453 104.698 52.7977 104.288C47.2166 103.875 43.8853 104.437 38.5793 106.166C38.487 106.196 37.8186 106.414 37.6235 106.477C36.2843 106.913 35.1043 107.26 33.9951 107.525L37.3223 107.771ZM38.1732 96.2645C33.8868 97.6205 31.1186 98.0568 26.8764 97.7431L26.9615 96.5924C29.9784 96.8155 32.2127 96.6484 34.846 96.0184L38.1732 96.2645ZM67.6885 98.447C71.6905 100.459 74.4112 101.258 79.3997 101.627L79.4848 100.476C75.891 100.211 73.5278 99.7222 70.9581 98.6888L67.6885 98.447ZM26.451 103.497C30.8842 103.824 33.7078 103.333 38.3364 101.829C38.5324 101.765 39.2013 101.547 39.2929 101.517C44.4878 99.825 47.7003 99.283 53.138 99.6851C58.5328 100.084 61.1546 100.985 65.8641 103.477C70.6836 106.028 73.4266 106.97 78.9742 107.381L79.0593 106.23C73.6646 105.831 71.0428 104.93 66.3332 102.438C61.5137 99.8869 58.7707 98.9446 53.2231 98.5344C47.6421 98.1217 44.3108 98.6837 39.0048 100.412C38.9124 100.442 38.2441 100.66 38.0489 100.724C33.5308 102.192 30.8238 102.663 26.536 102.346L26.451 103.497Z" fill="black"/>
<path fill-rule="evenodd" clip-rule="evenodd" d="M89.8455 111.655C90.0386 111.594 90.2347 111.531 90.4342 111.467C90.6302 111.403 91.2991 111.184 91.3907 111.155C96.5856 109.462 99.7981 108.92 105.236 109.323C110.631 109.721 113.252 110.622 117.962 113.115C118.448 113.372 118.912 113.613 119.361 113.838L122.63 114.08C121.343 113.562 120.003 112.907 118.431 112.075C113.612 109.524 110.869 108.582 105.321 108.172C99.7399 107.759 96.4086 108.321 91.1026 110.05C91.0102 110.08 90.3419 110.298 90.1467 110.361C88.8076 110.797 87.6276 111.144 86.5183 111.409L89.8455 111.655ZM90.6965 100.148C86.4101 101.504 83.6418 101.941 79.3997 101.627L79.4848 100.476C82.5017 100.699 84.736 100.532 87.3693 99.9024L90.6965 100.148ZM120.212 102.331C124.214 104.343 126.934 105.142 131.923 105.511L132.008 104.36C128.414 104.095 126.051 103.606 123.481 102.573L120.212 102.331ZM78.9742 107.381C83.4074 107.708 86.231 107.217 90.8597 105.713C91.0557 105.649 91.7245 105.431 91.8162 105.401C97.011 103.709 100.224 103.167 105.661 103.569C111.056 103.968 113.678 104.869 118.387 107.361C123.207 109.912 125.95 110.854 131.497 111.265L131.583 110.114C126.188 109.715 123.566 108.814 118.857 106.322C114.037 103.771 111.294 102.829 105.746 102.418C100.165 102.006 96.8341 102.568 91.528 104.296C91.4357 104.326 90.7673 104.544 90.5722 104.608C86.0541 106.076 83.3471 106.547 79.0593 106.23L78.9742 107.381Z" fill="black"/>
<path fill-rule="evenodd" clip-rule="evenodd" d="M142.369 115.539C142.562 115.478 142.758 115.415 142.957 115.351C143.153 115.287 143.822 115.068 143.914 115.039C149.109 113.346 152.321 112.804 157.759 113.207C163.154 113.605 165.776 114.506 170.485 116.999C170.971 117.256 171.436 117.497 171.884 117.722L175.154 117.964C173.866 117.446 172.527 116.791 170.954 115.959C166.135 113.408 163.392 112.466 157.844 112.056C152.263 111.643 148.932 112.205 143.626 113.934C143.533 113.964 142.865 114.182 142.67 114.245C141.331 114.68 140.151 115.028 139.042 115.293L142.369 115.539ZM143.22 104.032C138.933 105.388 136.165 105.825 131.923 105.511L132.008 104.36C135.025 104.583 137.259 104.416 139.893 103.786L143.22 104.032ZM172.735 106.215C176.737 108.227 179.458 109.026 184.446 109.395L184.531 108.244C180.938 107.979 178.574 107.49 176.005 106.457L172.735 106.215ZM131.497 111.265C135.931 111.592 138.754 111.101 143.383 109.597C143.579 109.533 144.248 109.315 144.339 109.285C149.534 107.593 152.747 107.051 158.185 107.453C163.579 107.852 166.201 108.753 170.911 111.245C175.73 113.796 178.473 114.738 184.021 115.148L184.106 113.998C178.711 113.599 176.089 112.698 171.38 110.206C166.56 107.655 163.817 106.713 158.27 106.302C152.689 105.89 149.357 106.452 144.051 108.18C143.959 108.21 143.291 108.428 143.095 108.492C138.577 109.96 135.87 110.431 131.583 110.114L131.497 111.265Z" fill="black"/>
<path fill-rule="evenodd" clip-rule="evenodd" d="M36.4714 119.279C36.6644 119.217 36.8606 119.155 37.06 119.09C37.2561 119.026 37.9249 118.808 38.0165 118.778C43.2114 117.086 46.4239 116.544 51.8617 116.946C57.2564 117.345 59.8782 118.245 64.5877 120.738C65.0735 120.995 65.5381 121.236 65.9866 121.461L69.2563 121.703C67.9686 121.185 66.6291 120.53 65.0569 119.698C60.2374 117.147 57.4944 116.205 51.9468 115.795C46.3657 115.382 43.0344 115.944 37.7284 117.673C37.636 117.703 36.9677 117.921 36.7726 117.984C35.4334 118.42 34.2534 118.767 33.1442 119.033L36.4714 119.279ZM37.3223 107.771C33.0359 109.128 30.2677 109.564 26.0255 109.25L26.1106 108.099C29.1275 108.323 31.3618 108.155 33.9951 107.525L37.3223 107.771ZM66.8375 109.954C70.8395 111.966 73.5603 112.765 78.5488 113.134L78.6339 111.983C75.0401 111.718 72.6768 111.229 70.1072 110.196L66.8375 109.954ZM25.6 115.004C30.0333 115.331 32.8568 114.84 37.4855 113.336C37.6815 113.272 38.3504 113.054 38.442 113.024C43.6369 111.332 46.8494 110.79 52.2871 111.192C57.6819 111.591 60.3037 112.492 65.0132 114.984C69.8327 117.535 72.5757 118.477 78.1233 118.888L78.2084 117.737C72.8137 117.338 70.1918 116.437 65.4823 113.945C60.6628 111.394 57.9198 110.452 52.3722 110.041C46.7912 109.629 43.4599 110.191 38.1538 111.919C38.0615 111.949 37.3931 112.168 37.198 112.231C32.6799 113.699 29.9729 114.17 25.6851 113.853L25.6 115.004Z" fill="black"/>
<path fill-rule="evenodd" clip-rule="evenodd" d="M88.9946 123.163C89.1877 123.101 89.3838 123.038 89.5833 122.974C89.7793 122.91 90.4482 122.691 90.5398 122.662C95.7347 120.969 98.9472 120.427 104.385 120.83C109.78 121.229 112.401 122.129 117.111 124.622C117.597 124.879 118.061 125.12 118.51 125.345L121.78 125.587C120.492 125.069 119.152 124.414 117.58 123.582C112.761 121.031 110.018 120.089 104.47 119.679C98.889 119.266 95.5577 119.828 90.2516 121.557C90.1593 121.587 89.4909 121.805 89.2958 121.868C87.9567 122.304 86.7767 122.651 85.6674 122.916L88.9946 123.163ZM89.8455 111.655C85.5592 113.011 82.7909 113.448 78.5488 113.134L78.6339 111.983C81.6507 112.206 83.8851 112.039 86.5183 111.409L89.8455 111.655ZM119.361 113.838C123.363 115.85 126.084 116.649 131.072 117.018L131.157 115.867C127.563 115.602 125.2 115.113 122.63 114.08L119.361 113.838ZM78.1233 118.888C82.5565 119.215 85.3801 118.724 90.0088 117.22C90.2048 117.156 90.8736 116.938 90.9653 116.908C96.1601 115.216 99.3726 114.674 104.81 115.076C110.205 115.475 112.827 116.376 117.536 118.868C122.356 121.419 125.099 122.361 130.647 122.772L130.732 121.621C125.337 121.222 122.715 120.321 118.006 117.829C113.186 115.278 110.443 114.336 104.895 113.925C99.3144 113.513 95.9831 114.075 90.6771 115.803C90.5848 115.833 89.9164 116.051 89.7213 116.115C85.2032 117.583 82.4961 118.054 78.2084 117.737L78.1233 118.888Z" fill="black"/>
<path fill-rule="evenodd" clip-rule="evenodd" d="M141.518 127.046C141.711 126.985 141.907 126.922 142.107 126.858C142.303 126.794 142.971 126.575 143.063 126.546C148.258 124.853 151.47 124.311 156.908 124.714C162.303 125.112 164.925 126.013 169.634 128.506C170.12 128.763 170.585 129.004 171.033 129.229L174.303 129.471C173.015 128.953 171.676 128.298 170.103 127.466C165.284 124.915 162.541 123.973 156.993 123.563C151.412 123.15 148.081 123.712 142.775 125.441C142.683 125.471 142.014 125.689 141.819 125.752C140.48 126.188 139.3 126.535 138.191 126.8L141.518 127.046ZM142.369 115.539C138.082 116.895 135.314 117.332 131.072 117.018L131.157 115.867C134.174 116.09 136.408 115.923 139.042 115.293L142.369 115.539ZM171.884 117.722C175.886 119.734 178.607 120.533 183.595 120.902L183.68 119.751C180.087 119.486 177.723 118.997 175.154 117.964L171.884 117.722ZM130.647 122.772C135.08 123.099 137.903 122.608 142.532 121.104C142.728 121.04 143.397 120.822 143.489 120.792C148.683 119.1 151.896 118.558 157.334 118.96C162.728 119.359 165.35 120.26 170.06 122.752C174.879 125.303 177.622 126.245 183.17 126.656L183.255 125.505C177.86 125.106 175.238 124.205 170.529 121.713C165.709 119.162 162.966 118.22 157.419 117.809C151.838 117.397 148.506 117.959 143.2 119.687C143.108 119.717 142.44 119.935 142.245 119.999C137.726 121.467 135.019 121.938 130.732 121.621L130.647 122.772Z" fill="black"/>
<path fill-rule="evenodd" clip-rule="evenodd" d="M35.6204 130.786C35.8135 130.725 36.0096 130.662 36.2091 130.597C36.4051 130.533 37.074 130.315 37.1656 130.285C42.3605 128.593 45.573 128.051 51.0108 128.453C56.4055 128.852 59.0273 129.752 63.7368 132.245C64.2225 132.502 64.6872 132.743 65.1357 132.968L68.4054 133.21C67.1177 132.692 65.7782 132.037 64.206 131.205C59.3864 128.654 56.6435 127.712 51.0958 127.302C45.5148 126.889 42.1835 127.451 36.8775 129.18C36.7851 129.21 36.1168 129.428 35.9216 129.491C34.5825 129.927 33.4025 130.274 32.2932 130.54L35.6204 130.786ZM36.4714 119.279C32.185 120.635 29.4167 121.071 25.1746 120.757L25.2597 119.606C28.2766 119.83 30.5109 119.663 33.1442 119.033L36.4714 119.279ZM65.9866 121.461C69.9886 123.473 72.7093 124.272 77.6978 124.641L77.7829 123.49C74.1892 123.225 71.8259 122.736 69.2563 121.703L65.9866 121.461ZM24.7491 126.511C29.1823 126.839 32.0059 126.347 36.6346 124.843C36.8306 124.78 37.4994 124.561 37.5911 124.531C42.7859 122.839 45.9984 122.297 51.4362 122.699C56.8309 123.098 59.4528 123.999 64.1623 126.491C68.9818 129.042 71.7248 129.984 77.2724 130.395L77.3575 129.244C71.9627 128.845 69.3409 127.944 64.6314 125.452C59.8119 122.901 57.0689 121.959 51.5213 121.548C45.9403 121.136 42.609 121.698 37.3029 123.426C37.2106 123.456 36.5422 123.675 36.3471 123.738C31.829 125.206 29.122 125.677 24.8342 125.36L24.7491 126.511Z" fill="black"/>
<path fill-rule="evenodd" clip-rule="evenodd" d="M88.1437 134.67C88.3368 134.608 88.5329 134.546 88.7324 134.481C88.9284 134.417 89.5972 134.199 89.6889 134.169C94.8837 132.477 98.0962 131.935 103.534 132.337C108.929 132.736 111.551 133.636 116.26 136.129C116.746 136.386 117.21 136.627 117.659 136.852L120.929 137.094C119.641 136.576 118.301 135.921 116.729 135.089C111.91 132.538 109.167 131.596 103.619 131.186C98.0381 130.773 94.7068 131.335 89.4007 133.064C89.3084 133.094 88.64 133.312 88.4449 133.375C87.1058 133.811 85.9257 134.158 84.8165 134.424L88.1437 134.67ZM88.9946 123.163C84.7083 124.519 81.94 124.955 77.6978 124.641L77.7829 123.49C80.7998 123.714 83.0342 123.546 85.6674 122.916L88.9946 123.163ZM118.51 125.345C122.512 127.357 125.233 128.156 130.221 128.525L130.306 127.374C126.712 127.109 124.349 126.62 121.78 125.587L118.51 125.345ZM77.2724 130.395C81.7056 130.722 84.5292 130.231 89.1578 128.727C89.3539 128.664 90.0227 128.445 90.1143 128.415C95.3092 126.723 98.5217 126.181 103.959 126.583C109.354 126.982 111.976 127.883 116.686 130.375C121.505 132.926 124.248 133.868 129.796 134.279L129.881 133.128C124.486 132.729 121.864 131.828 117.155 129.336C112.335 126.785 109.592 125.843 104.045 125.432C98.4635 125.02 95.1322 125.582 89.8262 127.31C89.7338 127.34 89.0655 127.559 88.8704 127.622C84.3523 129.09 81.6452 129.561 77.3575 129.244L77.2724 130.395Z" fill="black"/>
<path fill-rule="evenodd" clip-rule="evenodd" d="M140.667 138.554C140.86 138.492 141.056 138.429 141.256 138.365C141.452 138.301 142.12 138.082 142.212 138.053C147.407 136.36 150.62 135.818 156.057 136.221C161.452 136.62 164.074 137.52 168.783 140.013C169.269 140.27 169.734 140.511 170.182 140.736L173.452 140.978C172.164 140.46 170.825 139.805 169.252 138.973C164.433 136.422 161.69 135.48 156.142 135.07C150.561 134.657 147.23 135.219 141.924 136.948C141.832 136.978 141.163 137.196 140.968 137.259C139.629 137.695 138.449 138.042 137.34 138.307L140.667 138.554ZM141.518 127.046C137.232 128.402 134.463 128.839 130.221 128.525L130.306 127.374C133.323 127.597 135.557 127.43 138.191 126.8L141.518 127.046ZM171.033 129.229C175.035 131.241 177.756 132.04 182.744 132.409L182.829 131.258C179.236 130.993 176.872 130.504 174.303 129.471L171.033 129.229ZM129.796 134.279C134.229 134.606 137.052 134.115 141.681 132.611C141.877 132.547 142.546 132.329 142.638 132.299C147.832 130.607 151.045 130.065 156.483 130.467C161.877 130.866 164.499 131.767 169.209 134.259C174.028 136.81 176.771 137.752 182.319 138.163L182.404 137.012C177.009 136.613 174.387 135.712 169.678 133.22C164.858 130.669 162.115 129.727 156.568 129.316C150.987 128.904 147.655 129.466 142.349 131.194C142.257 131.224 141.589 131.442 141.394 131.506C136.876 132.974 134.168 133.445 129.881 133.128L129.796 134.279Z" fill="black"/>
<path fill-rule="evenodd" clip-rule="evenodd" d="M34.7695 142.293C34.9626 142.232 35.1587 142.169 35.3582 142.104C35.5542 142.04 36.2231 141.822 36.3147 141.792C41.5096 140.1 44.7221 139.558 50.1598 139.96C55.5546 140.359 58.1764 141.259 62.8859 143.752C63.3716 144.009 63.8363 144.25 64.2848 144.475L67.5545 144.717C66.2668 144.199 64.9272 143.544 63.355 142.712C58.5355 140.162 55.7925 139.219 50.2449 138.809C44.6639 138.396 41.3326 138.958 36.0265 140.687C35.9342 140.717 35.2658 140.935 35.0707 140.999C33.7316 141.434 32.5516 141.781 31.4423 142.047L34.7695 142.293ZM35.6204 130.786C31.3341 132.142 28.5658 132.578 24.3237 132.264L24.4088 131.114C27.4256 131.337 29.66 131.17 32.2932 130.54L35.6204 130.786ZM65.1357 132.968C69.1377 134.98 71.8584 135.779 76.8469 136.148L76.932 134.997C73.3382 134.732 70.975 134.243 68.4054 133.21L65.1357 132.968ZM23.8982 138.018C28.3314 138.346 31.155 137.854 35.7837 136.35C35.9797 136.287 36.6485 136.068 36.7402 136.038C41.935 134.346 45.1475 133.804 50.5853 134.206C55.98 134.605 58.6019 135.506 63.3114 137.998C68.1309 140.549 70.8739 141.491 76.4215 141.902L76.5066 140.751C71.1118 140.352 68.49 139.451 63.7805 136.959C58.961 134.408 56.218 133.466 50.6704 133.055C45.0893 132.643 41.758 133.205 36.452 134.933C36.3597 134.963 35.6913 135.182 35.4962 135.245C30.9781 136.713 28.271 137.184 23.9833 136.867L23.8982 138.018Z" fill="black"/>
<path fill-rule="evenodd" clip-rule="evenodd" d="M87.2928 146.177C87.4858 146.116 87.682 146.053 87.8815 145.988C88.0775 145.924 88.7463 145.706 88.838 145.676C94.0328 143.984 97.2453 143.442 102.683 143.844C108.078 144.243 110.7 145.143 115.409 147.636C115.895 147.893 116.36 148.134 116.808 148.359L120.078 148.601C118.79 148.083 117.45 147.428 115.878 146.596C111.059 144.046 108.316 143.103 102.768 142.693C97.1871 142.28 93.8558 142.842 88.5498 144.571C88.4575 144.601 87.7891 144.819 87.594 144.882C86.2549 145.318 85.0748 145.665 83.9656 145.931L87.2928 146.177ZM88.1437 134.67C83.8573 136.026 81.0891 136.462 76.8469 136.148L76.932 134.997C79.9489 135.221 82.1833 135.054 84.8165 134.424L88.1437 134.67ZM117.659 136.852C121.661 138.864 124.382 139.663 129.37 140.032L129.455 138.881C125.861 138.616 123.498 138.127 120.929 137.094L117.659 136.852ZM76.4215 141.902C80.8547 142.23 83.6783 141.738 88.3069 140.234C88.5029 140.171 89.1718 139.952 89.2634 139.922C94.4583 138.23 97.6708 137.688 103.109 138.09C108.503 138.489 111.125 139.39 115.835 141.882C120.654 144.433 123.397 145.375 128.945 145.786L129.03 144.635C123.635 144.236 121.013 143.335 116.304 140.843C111.484 138.292 108.741 137.35 103.194 136.939C97.6126 136.527 94.2813 137.089 88.9753 138.817C88.8829 138.847 88.2146 139.066 88.0194 139.129C83.5013 140.597 80.7943 141.068 76.5066 140.751L76.4215 141.902Z" fill="black"/>
<path fill-rule="evenodd" clip-rule="evenodd" d="M139.816 150.061C140.009 149.999 140.205 149.937 140.405 149.872C140.601 149.808 141.27 149.59 141.361 149.56C146.556 147.868 149.769 147.326 155.206 147.728C160.601 148.127 163.223 149.027 167.932 151.52C168.418 151.777 168.883 152.018 169.331 152.243L172.601 152.485C171.313 151.967 169.974 151.312 168.402 150.48C163.582 147.929 160.839 146.987 155.291 146.577C149.71 146.164 146.379 146.726 141.073 148.455C140.981 148.485 140.312 148.703 140.117 148.766C138.778 149.202 137.598 149.549 136.489 149.815L139.816 150.061ZM140.667 138.554C136.381 139.91 133.612 140.346 129.37 140.032L129.455 138.881C132.472 139.105 134.707 138.937 137.34 138.307L140.667 138.554ZM170.182 140.736C174.184 142.748 176.905 143.547 181.893 143.916L181.979 142.765C178.385 142.5 176.022 142.011 173.452 140.978L170.182 140.736ZM128.945 145.786C133.378 146.113 136.202 145.622 140.83 144.118C141.026 144.055 141.695 143.836 141.787 143.806C146.982 142.114 150.194 141.572 155.632 141.974C161.027 142.373 163.648 143.274 168.358 145.766C173.177 148.317 175.92 149.259 181.468 149.67L181.553 148.519C176.158 148.12 173.537 147.219 168.827 144.727C164.008 142.176 161.265 141.234 155.717 140.823C150.136 140.411 146.805 140.973 141.499 142.701C141.406 142.731 140.738 142.95 140.543 143.013C136.025 144.481 133.318 144.952 129.03 144.635L128.945 145.786Z" fill="black"/>
<path fill-rule="evenodd" clip-rule="evenodd" d="M33.9186 153.8C34.1117 153.739 34.3078 153.676 34.5073 153.611C34.7033 153.547 35.3721 153.329 35.4638 153.299C40.6586 151.607 43.8712 151.065 49.3089 151.467C54.7037 151.866 57.3255 152.766 62.035 155.259C62.5207 155.516 62.9853 155.757 63.4339 155.982L66.7036 156.224C65.4159 155.706 64.0763 155.051 62.5041 154.219C57.6846 151.669 54.9416 150.726 49.394 150.316C43.813 149.903 40.4817 150.465 35.1756 152.194C35.0833 152.224 34.4149 152.442 34.2198 152.506C32.8807 152.941 31.7007 153.288 30.5914 153.554L33.9186 153.8ZM34.7695 142.293C30.4832 143.649 27.7149 144.085 23.4727 143.771L23.5578 142.621C26.5747 142.844 28.8091 142.677 31.4423 142.047L34.7695 142.293ZM64.2848 144.475C68.2868 146.487 71.0075 147.286 75.996 147.655L76.0811 146.505C72.4873 146.239 70.1241 145.75 67.5545 144.717L64.2848 144.475ZM23.0473 149.525C27.4805 149.853 30.3041 149.361 34.9327 147.857C35.1288 147.794 35.7976 147.575 35.8893 147.545C41.0841 145.853 44.2966 145.311 49.7344 145.713C55.1291 146.112 57.7509 147.013 62.4604 149.505C67.28 152.056 70.0229 152.999 75.5705 153.409L75.6556 152.258C70.2609 151.859 67.6391 150.958 62.9296 148.466C58.1101 145.915 55.3671 144.973 49.8195 144.563C44.2384 144.15 40.9071 144.712 35.6011 146.44C35.5087 146.47 34.8404 146.689 34.6453 146.752C30.1272 148.22 27.4201 148.691 23.1324 148.374L23.0473 149.525Z" fill="black"/>
<path fill-rule="evenodd" clip-rule="evenodd" d="M86.4419 157.684C86.6349 157.623 86.8311 157.56 87.0306 157.495C87.2266 157.431 87.8954 157.213 87.9871 157.183C93.1819 155.491 96.3944 154.949 101.832 155.351C107.227 155.75 109.849 156.65 114.558 159.143C115.044 159.4 115.509 159.641 115.957 159.866L119.227 160.108C117.939 159.59 116.6 158.935 115.027 158.103C110.208 155.553 107.465 154.61 101.917 154.2C96.3362 153.787 93.0049 154.349 87.6989 156.078C87.6065 156.108 86.9382 156.326 86.7431 156.39C85.4039 156.825 84.2239 157.172 83.1147 157.438L86.4419 157.684ZM87.2928 146.177C83.0064 147.533 80.2382 147.969 75.996 147.655L76.0811 146.505C79.098 146.728 81.3323 146.561 83.9656 145.931L87.2928 146.177ZM116.808 148.359C120.81 150.371 123.531 151.17 128.519 151.539L128.604 150.388C125.011 150.123 122.647 149.634 120.078 148.601L116.808 148.359ZM75.5705 153.409C80.0038 153.737 82.8273 153.245 87.456 151.741C87.652 151.678 88.3209 151.459 88.4125 151.429C93.6074 149.737 96.8199 149.195 102.258 149.597C107.652 149.996 110.274 150.897 114.984 153.389C119.803 155.94 122.546 156.882 128.094 157.293L128.179 156.142C122.784 155.743 120.162 154.842 115.453 152.35C110.633 149.799 107.89 148.857 102.343 148.446C96.7617 148.034 93.4304 148.596 88.1243 150.324C88.032 150.354 87.3636 150.573 87.1685 150.636C82.6504 152.104 79.9434 152.575 75.6556 152.258L75.5705 153.409Z" fill="black"/>
<path fill-rule="evenodd" clip-rule="evenodd" d="M138.965 161.568C139.158 161.507 139.354 161.444 139.554 161.379C139.75 161.315 140.419 161.097 140.51 161.067C145.705 159.375 148.918 158.833 154.355 159.235C159.75 159.634 162.372 160.534 167.081 163.027C167.567 163.284 168.032 163.525 168.48 163.75L171.75 163.992C170.462 163.474 169.123 162.819 167.551 161.987C162.731 159.437 159.988 158.494 154.441 158.084C148.859 157.671 145.528 158.233 140.222 159.962C140.13 159.992 139.461 160.21 139.266 160.274C137.927 160.709 136.747 161.056 135.638 161.322L138.965 161.568ZM139.816 150.061C135.53 151.417 132.761 151.853 128.519 151.539L128.604 150.388C131.621 150.612 133.856 150.445 136.489 149.815L139.816 150.061ZM169.331 152.243C173.333 154.255 176.054 155.054 181.043 155.423L181.128 154.272C177.534 154.007 175.171 153.518 172.601 152.485L169.331 152.243ZM128.094 157.293C132.527 157.621 135.351 157.129 139.979 155.625C140.175 155.562 140.844 155.343 140.936 155.313C146.131 153.621 149.343 153.079 154.781 153.481C160.176 153.88 162.797 154.781 167.507 157.273C172.326 159.824 175.069 160.766 180.617 161.177L180.702 160.026C175.307 159.627 172.686 158.726 167.976 156.234C163.157 153.683 160.414 152.741 154.866 152.33C149.285 151.918 145.954 152.48 140.648 154.208C140.555 154.238 139.887 154.457 139.692 154.52C135.174 155.988 132.467 156.459 128.179 156.142L128.094 157.293Z" fill="black"/>
<path fill-rule="evenodd" clip-rule="evenodd" d="M33.0677 165.307C33.2607 165.246 33.4569 165.183 33.6564 165.118C33.8524 165.054 34.5212 164.836 34.6129 164.806C39.8077 163.114 43.0202 162.572 48.458 162.974C53.8527 163.373 56.4746 164.273 61.1841 166.766C61.6698 167.023 62.1344 167.264 62.583 167.489L65.8526 167.731C64.5649 167.213 63.2254 166.559 61.6532 165.726C56.8337 163.176 54.0907 162.233 48.5431 161.823C42.962 161.41 39.6307 161.972 34.3247 163.701C34.2324 163.731 33.564 163.949 33.3689 164.013C32.0298 164.448 30.8497 164.795 29.7405 165.061L33.0677 165.307ZM33.9186 153.8C29.6323 155.156 26.864 155.592 22.6218 155.278L22.7069 154.128C25.7238 154.351 27.9582 154.184 30.5914 153.554L33.9186 153.8ZM63.4339 155.982C67.4359 157.994 70.1566 158.793 75.1451 159.162L75.2302 158.012C71.6364 157.746 69.2732 157.257 66.7036 156.224L63.4339 155.982ZM22.1964 161.032C26.6296 161.36 29.4532 160.868 34.0818 159.364C34.2778 159.301 34.9467 159.082 35.0383 159.052C40.2332 157.36 43.4457 156.818 48.8835 157.22C54.2782 157.619 56.9 158.52 61.6095 161.012C66.429 163.563 69.172 164.506 74.7196 164.916L74.8047 163.765C69.41 163.366 66.7882 162.465 62.0787 159.973C57.2592 157.422 54.5162 156.48 48.9686 156.07C43.3875 155.657 40.0562 156.219 34.7502 157.947C34.6578 157.977 33.9895 158.196 33.7943 158.259C29.2762 159.727 26.5692 160.198 22.2815 159.881L22.1964 161.032Z" fill="black"/>
<path fill-rule="evenodd" clip-rule="evenodd" d="M85.591 169.191C85.784 169.13 85.9801 169.067 86.1796 169.002C86.3757 168.938 87.0445 168.72 87.1361 168.69C92.331 166.998 95.5435 166.456 100.981 166.858C106.376 167.257 108.998 168.157 113.707 170.65C114.193 170.907 114.658 171.148 115.106 171.373L118.376 171.615C117.088 171.097 115.749 170.443 114.176 169.61C109.357 167.06 106.614 166.117 101.066 165.707C95.4853 165.294 92.154 165.856 86.848 167.585C86.7556 167.615 86.0873 167.833 85.8921 167.897C84.553 168.332 83.373 168.679 82.2638 168.945L85.591 169.191ZM86.4419 157.684C82.1555 159.04 79.3873 159.476 75.1451 159.162L75.2302 158.012C78.2471 158.235 80.4814 158.068 83.1147 157.438L86.4419 157.684ZM115.957 159.866C119.959 161.878 122.68 162.677 127.668 163.046L127.753 161.896C124.16 161.63 121.796 161.141 119.227 160.108L115.957 159.866ZM74.7196 164.916C79.1529 165.244 81.9764 164.752 86.6051 163.248C86.8011 163.185 87.4699 162.966 87.5616 162.936C92.7564 161.244 95.969 160.702 101.407 161.104C106.801 161.503 109.423 162.404 114.133 164.896C118.952 167.447 121.695 168.39 127.243 168.8L127.328 167.649C121.933 167.25 119.311 166.349 114.602 163.857C109.782 161.306 107.039 160.364 101.492 159.954C95.9108 159.541 92.5795 160.103 87.2734 161.831C87.1811 161.861 86.5127 162.08 86.3176 162.143C81.7995 163.611 79.0925 164.082 74.8047 163.765L74.7196 164.916Z" fill="black"/>
<path fill-rule="evenodd" clip-rule="evenodd" d="M138.114 173.075C138.307 173.014 138.503 172.951 138.703 172.886C138.899 172.822 139.568 172.604 139.659 172.574C144.854 170.882 148.067 170.34 153.505 170.742C158.899 171.141 161.521 172.041 166.231 174.534C166.716 174.791 167.181 175.032 167.629 175.257L170.899 175.499C169.611 174.981 168.272 174.326 166.7 173.494C161.88 170.944 159.137 170.001 153.59 169.591C148.009 169.178 144.677 169.74 139.371 171.469C139.279 171.499 138.611 171.717 138.415 171.781C137.076 172.216 135.896 172.563 134.787 172.829L138.114 173.075ZM138.965 161.568C134.679 162.924 131.911 163.36 127.668 163.046L127.753 161.896C130.77 162.119 133.005 161.952 135.638 161.322L138.965 161.568ZM168.48 163.75C172.482 165.762 175.203 166.561 180.192 166.93L180.277 165.779C176.683 165.514 174.32 165.025 171.75 163.992L168.48 163.75ZM127.243 168.8C131.676 169.128 134.5 168.636 139.128 167.132C139.324 167.069 139.993 166.85 140.085 166.82C145.28 165.128 148.492 164.586 153.93 164.988C159.325 165.387 161.947 166.288 166.656 168.78C171.476 171.331 174.219 172.273 179.766 172.684L179.851 171.533C174.457 171.134 171.835 170.233 167.125 167.741C162.306 165.19 159.563 164.248 154.015 163.838C148.434 163.425 145.103 163.987 139.797 165.715C139.704 165.745 139.036 165.964 138.841 166.027C134.323 167.495 131.616 167.966 127.328 167.649L127.243 168.8Z" fill="black"/>
<path fill-rule="evenodd" clip-rule="evenodd" d="M32.2168 176.814C32.4098 176.753 32.606 176.69 32.8055 176.625C33.0015 176.561 33.6703 176.343 33.762 176.313C38.9568 174.621 42.1693 174.079 47.6071 174.481C53.0018 174.88 55.6236 175.78 60.3331 178.273C60.8189 178.53 61.2835 178.771 61.732 178.996L65.0017 179.238C63.714 178.72 62.3745 178.066 60.8023 177.233C55.9828 174.683 53.2398 173.74 47.6922 173.33C42.1111 172.917 38.7798 173.479 33.4738 175.208C33.3814 175.238 32.7131 175.456 32.518 175.52C31.1788 175.955 29.9988 176.302 28.8896 176.568L32.2168 176.814ZM33.0677 165.307C28.7813 166.663 26.0131 167.099 21.7709 166.785L21.856 165.635C24.8729 165.858 27.1072 165.691 29.7405 165.061L33.0677 165.307ZM62.583 167.489C66.585 169.501 69.3057 170.3 74.2942 170.669L74.3793 169.519C70.7855 169.253 68.4223 168.764 65.8526 167.731L62.583 167.489ZM21.3455 172.539C25.7787 172.867 28.6023 172.375 33.2309 170.871C33.4269 170.808 34.0958 170.589 34.1874 170.559C39.3823 168.867 42.5948 168.325 48.0325 168.727C53.4273 169.126 56.0491 170.027 60.7586 172.52C65.5781 175.07 68.3211 176.013 73.8687 176.423L73.9538 175.272C68.5591 174.873 65.9373 173.973 61.2277 171.48C56.4082 168.929 53.6652 167.987 48.1176 167.577C42.5366 167.164 39.2053 167.726 33.8993 169.454C33.8069 169.484 33.1385 169.703 32.9434 169.766C28.4253 171.234 25.7183 171.705 21.4305 171.388L21.3455 172.539Z" fill="black"/>
<path fill-rule="evenodd" clip-rule="evenodd" d="M84.74 180.698C84.9331 180.637 85.1292 180.574 85.3287 180.509C85.5247 180.445 86.1936 180.227 86.2852 180.197C91.4801 178.505 94.6926 177.963 100.13 178.365C105.525 178.764 108.147 179.664 112.856 182.157C113.342 182.414 113.807 182.655 114.255 182.88L117.525 183.122C116.237 182.604 114.898 181.95 113.326 181.117C108.506 178.567 105.763 177.624 100.215 177.214C94.6344 176.801 91.3031 177.363 85.9971 179.092C85.9047 179.122 85.2364 179.34 85.0412 179.404C83.7021 179.839 82.5221 180.186 81.4128 180.452L84.74 180.698ZM85.591 169.191C81.3046 170.547 78.5363 170.983 74.2942 170.669L74.3793 169.519C77.3962 169.742 79.6305 169.575 82.2638 168.945L85.591 169.191ZM115.106 171.373C119.108 173.385 121.829 174.184 126.817 174.553L126.903 173.403C123.309 173.137 120.946 172.648 118.376 171.615L115.106 171.373ZM73.8687 176.423C78.3019 176.751 81.1255 176.259 85.7542 174.755C85.9502 174.692 86.619 174.473 86.7107 174.443C91.9055 172.751 95.118 172.209 100.556 172.611C105.951 173.01 108.572 173.911 113.282 176.403C118.101 178.954 120.844 179.897 126.392 180.307L126.477 179.156C121.082 178.757 118.461 177.856 113.751 175.364C108.931 172.813 106.189 171.871 100.641 171.461C95.0598 171.048 91.7285 171.61 86.4225 173.338C86.3302 173.368 85.6618 173.587 85.4667 173.65C80.9486 175.118 78.2415 175.589 73.9538 175.272L73.8687 176.423Z" fill="black"/>
<path fill-rule="evenodd" clip-rule="evenodd" d="M137.263 184.582C137.456 184.521 137.652 184.458 137.852 184.393C138.048 184.329 138.717 184.111 138.808 184.081C144.003 182.389 147.216 181.847 152.654 182.249C158.048 182.648 160.67 183.548 165.38 186.041C165.865 186.298 166.33 186.539 166.779 186.764L170.048 187.006C168.761 186.488 167.421 185.834 165.849 185.001C161.029 182.451 158.286 181.508 152.739 181.098C147.158 180.685 143.826 181.247 138.52 182.976C138.428 183.006 137.76 183.224 137.564 183.288C136.225 183.723 135.045 184.07 133.936 184.336L137.263 184.582ZM138.114 173.075C133.828 174.431 131.06 174.867 126.817 174.553L126.903 173.403C129.919 173.626 132.154 173.459 134.787 172.829L138.114 173.075ZM167.629 175.257C171.631 177.269 174.352 178.068 179.341 178.437L179.426 177.287C175.832 177.021 173.469 176.532 170.899 175.499L167.629 175.257ZM126.392 180.307C130.825 180.635 133.649 180.143 138.277 178.639C138.473 178.576 139.142 178.357 139.234 178.327C144.429 176.635 147.641 176.093 153.079 176.495C158.474 176.894 161.096 177.795 165.805 180.287C170.625 182.838 173.368 183.781 178.915 184.191L179 183.04C173.606 182.641 170.984 181.74 166.274 179.248C161.455 176.697 158.712 175.755 153.164 175.345C147.583 174.932 144.252 175.494 138.946 177.222C138.853 177.252 138.185 177.471 137.99 177.534C133.472 179.002 130.765 179.473 126.477 179.156L126.392 180.307Z" fill="black"/>
<path d="M162.181 55.3792L162.399 54.5537L161.572 54.7672L34.1324 87.6877L33.288 87.9059L33.9029 88.5244L127.691 182.852L128.306 183.471L128.529 182.628L162.181 55.3792Z" stroke="black"/>
</g>
</g>
<defs>
<clipPath id="clip0_67_1667">
<rect width="215.691" height="215.7" fill="white" transform="translate(0.154297 0.791016)"/>
</clipPath>
</defs>
</svg>
